<svg width="60" height="60" viewBox="0 0 60 60" fill="none" xmlns="http://www.w3.org/2000/svg">
<g clip-path="url(#clip0_2920_828)">
<path fill-rule="evenodd" clip-rule="evenodd" d="M42.7219 49.0151L40.5729 49.0161L42.0159 47.4261C43.6389 45.6341 44.6089 42.6731 44.6089 39.5061L44.6099 39.5051C44.6099 32.8411 36.6369 28.0131 33.2099 26.2451C31.4319 25.3291 30.3279 23.5091 30.3279 21.4941C30.3279 19.3461 31.6059 17.4101 33.5819 16.5651L33.6549 16.5351C36.3979 15.3711 39.3009 14.7811 42.2809 14.7811C51.4919 14.7811 59.5299 22.3491 59.8319 31.3081C59.9899 35.9921 58.2849 40.4241 55.0319 43.7891C51.7779 47.1541 47.4059 49.0101 42.7219 49.0151ZM42.2809 16.6831C39.5339 16.6831 36.8589 17.2311 34.3329 18.3111L34.2889 18.3311L34.2879 18.3301C33.0549 18.8781 32.2569 20.0881 32.2359 21.4401H36.0399V23.3421L32.7639 23.3411C33.0829 23.8481 33.5309 24.2711 34.0829 24.5561C35.0599 25.0611 36.1779 25.6921 37.3309 26.4331L38.2789 26.6221C39.9139 26.9481 41.6319 26.9081 43.2499 26.5031C46.1869 25.7701 48.6609 23.9381 50.2189 21.3461L50.4569 20.9491L52.0899 21.9261L51.8519 22.3231C50.0339 25.3501 47.1419 27.4911 43.7109 28.3471C42.6639 28.6091 41.5809 28.7401 40.4979 28.7401C40.4939 28.7401 40.4899 28.7391 40.4859 28.7391C43.7199 31.4441 46.5129 35.0581 46.5129 39.5041C46.5129 42.2761 45.8399 44.9371 44.6609 46.9891C48.0819 46.5541 51.2259 44.9861 53.6639 42.4641C56.5549 39.4751 58.0699 35.5341 57.9299 31.3701C57.6609 23.4091 50.4939 16.6831 42.2809 16.6831ZM49.3689 33.8001H51.2739C51.2739 34.3241 51.6999 34.7511 52.2259 34.7511C52.7509 34.7511 53.1779 34.3241 53.1779 33.8001H55.0819C55.0819 35.3731 53.7999 36.6531 52.2259 36.6531C50.6509 36.6531 49.3689 35.3731 49.3689 33.8001ZM49.3689 31.8981C47.6759 31.8981 46.0949 30.9871 45.2469 29.5211L46.8939 28.5701C47.4049 29.4491 48.3529 29.9961 49.3689 29.9961C50.9439 29.9961 52.2259 28.7161 52.2259 27.1441V27.1431C52.2259 26.4481 51.9709 25.7781 51.5109 25.2571L52.9399 23.9991C53.7069 24.8671 54.1299 25.9841 54.1299 27.1441C54.1299 29.7661 51.9939 31.8981 49.3689 31.8981ZM50.3219 40.4571C50.8469 40.4571 51.2739 40.0301 51.2739 39.5061H53.1779C53.1779 41.0791 51.8959 42.3591 50.3219 42.3591C48.7469 42.3591 47.4649 41.0791 47.4649 39.5061H49.3689C49.3689 40.0301 49.7959 40.4571 50.3219 40.4571ZM40.8009 23.3401C39.2259 23.3401 37.9449 22.0601 37.9449 20.4871C37.9449 18.9141 39.2259 17.6341 40.8009 17.6341C42.3759 17.6341 43.6569 18.9141 43.6569 20.4871C43.6569 22.0601 42.3759 23.3401 40.8009 23.3401ZM40.8009 19.5361C40.2759 19.5361 39.8489 19.9631 39.8489 20.4871C39.8489 21.0111 40.2759 21.4381 40.8009 21.4381C41.3259 21.4381 41.7529 21.0111 41.7529 20.4871C41.7529 19.9631 41.3259 19.5361 40.8009 19.5361ZM28.9869 12.1381C25.9539 14.4651 18.9039 20.7711 18.9039 29.0451C18.9039 33.5661 19.7939 34.9961 21.2459 36.9541L22.2469 38.3051L20.5709 38.4671C19.9579 38.5261 19.4129 38.5551 18.9039 38.5551C8.92894 38.5551 0.814941 30.0231 0.814941 19.5361C0.814941 9.04907 8.92894 0.518066 18.9039 0.518066H19.6159C22.4319 0.518066 25.1719 1.07907 27.7599 2.18707C29.8989 3.10207 31.2799 5.19607 31.2799 7.52007C31.2799 9.33607 30.4439 11.0191 28.9869 12.1381ZM29.3359 6.97707L26.0589 8.94207L25.0789 7.31007L28.5999 5.20007C28.1969 4.65707 27.6589 4.21307 27.0109 3.93507C24.6609 2.92907 22.1729 2.41907 19.6159 2.41907H18.9039H18.9029C9.97794 2.41907 2.71794 10.0981 2.71794 19.5361C2.71794 28.9111 9.88194 36.5511 18.7249 36.6521C17.6549 34.9221 16.9989 32.9531 16.9989 29.0451C16.9989 24.3791 18.9149 20.3611 21.3119 17.1461C20.6159 17.2571 19.9119 17.3291 19.2059 17.3291C18.1219 17.3291 17.0399 17.1981 15.9929 16.9361C12.5609 16.0791 9.66994 13.9391 7.85194 10.9121L7.61394 10.5151L9.24694 9.53807L9.48494 9.93407C11.0419 12.5271 13.5169 14.3581 16.4539 15.0911C18.0699 15.4961 19.7889 15.5361 21.4249 15.2101L23.2099 14.8541C24.8179 13.0951 26.4739 11.6681 27.8259 10.6301C28.8109 9.87507 29.3759 8.74107 29.3759 7.52007C29.3759 7.33607 29.3609 7.15407 29.3359 6.97707ZM15.0949 10.0271C13.5209 10.0271 12.2389 8.74707 12.2389 7.17407C12.2389 5.60207 13.5209 4.32207 15.0949 4.32207C16.6699 4.32207 17.9519 5.60207 17.9519 7.17407C17.9519 8.74707 16.6699 10.0271 15.0949 10.0271ZM15.0949 6.22307C14.5699 6.22307 14.1429 6.65007 14.1429 7.17407C14.1429 7.69807 14.5699 8.12507 15.0949 8.12507C15.6209 8.12507 16.0479 7.69807 16.0479 7.17407C16.0479 6.65007 15.6209 6.22307 15.0949 6.22307ZM7.47894 15.7331C7.47894 17.3051 8.75994 18.5851 10.3349 18.5851C11.3519 18.5851 12.2999 18.0381 12.8109 17.1591L14.4569 18.1101C13.6089 19.5761 12.0289 20.4871 10.3349 20.4871V20.4881C7.70994 20.4881 5.57494 18.3541 5.57494 15.7331C5.57494 14.5731 5.99794 13.4561 6.76494 12.5881L8.19294 13.8461C7.73294 14.3671 7.47894 15.0371 7.47894 15.7331ZM8.43094 26.1921C8.95594 26.1921 9.38294 25.7661 9.38294 25.2411H11.2869C11.2869 26.8151 10.0059 28.0951 8.43094 28.0951C6.85594 28.0951 5.57494 26.8151 5.57494 25.2411H7.47894C7.47894 25.7661 7.90594 26.1921 8.43094 26.1921ZM12.2389 30.9471C12.7649 30.9471 13.1909 30.5201 13.1909 29.9961H15.0949C15.0949 31.5701 13.8139 32.8491 12.2389 32.8491C10.6649 32.8491 9.38294 31.5701 9.38294 29.9961H11.2869C11.2869 30.5201 11.7139 30.9471 12.2389 30.9471ZM11.2869 21.4381H13.1909C13.1909 21.9621 13.6179 22.3891 14.1429 22.3891C14.6689 22.3891 15.0949 21.9621 15.0949 21.4381H16.0999C16.0999 23.0111 15.7179 24.2911 14.1429 24.2911C12.5689 24.2911 11.2869 23.0111 11.2869 21.4381ZM3.47994 31.5191C2.98094 32.1811 2.71894 32.9701 2.71894 33.8001C2.71894 35.8981 4.42694 37.6031 6.52694 37.6031C7.35794 37.6031 8.14794 37.3411 8.81194 36.8431L9.95494 38.3651C8.95894 39.1111 7.77394 39.5061 6.52694 39.5061C3.37694 39.5061 0.814941 36.9461 0.814941 33.8001C0.814941 32.5551 1.20994 31.3711 1.95694 30.3771L3.47994 31.5191ZM15.0959 43.4721C15.0959 44.9311 15.6869 46.3601 16.7199 47.3911C17.7529 48.4241 19.1829 49.0151 20.6429 49.0151H22.4479C22.0049 47.0221 22.1109 44.9511 22.7609 43.0091L22.9779 42.3591H23.6639C25.7109 42.3591 27.5619 41.3121 28.5739 39.6271C29.0989 38.7531 29.3769 37.7511 29.3769 36.7331V35.7021H28.6549C25.7959 35.7021 23.1079 34.5891 21.0869 32.5701L22.4329 31.2261C24.0959 32.8861 26.3039 33.7991 28.6549 33.7991H31.2809V36.7331C31.2809 38.0971 30.9089 39.4351 30.2069 40.6061C28.9639 42.6771 26.7719 44.0271 24.3829 44.2321C23.9919 45.7431 23.9849 47.3261 24.3649 48.8491L24.8839 50.9161H20.6439C18.6829 50.9161 16.7619 50.1221 15.3739 48.7361C13.9879 47.3511 13.1919 45.4321 13.1919 43.4721V39.5051H15.0959V43.4721ZM41.1819 42.5481L42.3249 44.0701C39.9589 45.8411 37.0839 46.8951 34.1379 47.0831C34.1599 48.0851 34.5759 49.0601 35.2859 49.7691C36.0169 50.4981 37.0269 50.9161 38.0599 50.9161H40.8009V51.8671C40.8009 53.8351 40.3459 55.8051 39.4839 57.5731H40.0119C41.4729 57.5731 42.9029 56.9811 43.9359 55.9501C44.9689 54.9181 45.5609 53.4891 45.5609 52.0311V49.9661H47.4649V52.0311C47.4649 53.9911 46.6689 55.9091 45.2819 57.2951C43.8959 58.6801 41.9749 59.4751 40.0129 59.4751H36.4039L37.7199 56.8471C38.3489 55.5931 38.7339 54.2171 38.8559 52.8191H38.0599C36.5029 52.8191 35.0399 52.2131 33.9389 51.1141C32.8389 50.0141 32.2319 48.5521 32.2319 46.9981V45.2111H33.1839C36.0489 45.2111 38.8889 44.2651 41.1819 42.5481ZM54.1299 49.0151C56.2299 49.0151 57.9379 47.3081 57.9379 45.2111C57.9379 44.3801 57.6739 43.5911 57.1759 42.9291L58.6999 41.7861V41.7871C59.4469 42.7801 59.8419 43.9641 59.8419 45.2111C59.8419 48.3581 57.2799 50.9161 54.1299 50.9161C52.8809 50.9161 51.6939 50.5211 50.6989 49.7741L51.8419 48.2521C52.5069 48.7511 53.2979 49.0151 54.1299 49.0151Z" fill="#009FE3"/>
</g>
<defs>
<clipPath id="clip0_2920_828">
<rect width="60" height="60" fill="white"/>
</clipPath>
</defs>
</svg>
