<svg xmlns='http://www.w3.org/2000/svg' xmlns:xlink="http://www.w3.org/1999/xlink" version="1" style='display: none;'>
    <symbol id="insta" viewBox="0 0 33 33">
        <path fill-rule="evenodd" clip-rule="evenodd" d="M32.547 23.333C32.475 24.895 32.246 26.099 31.803 27.239C31.379 28.331 30.824 29.183 30.004 30.003C29.183 30.825 28.33 31.38 27.239 31.804C26.099 32.246 24.895 32.476 23.333 32.546C21.527 32.629 20.926 32.648 16.324 32.648C11.722 32.648 11.121 32.629 9.315 32.546C7.754 32.476 6.549 32.246 5.408 31.804C4.318 31.38 3.465 30.825 2.644 30.003C1.824 29.183 1.269 28.331 0.845 27.239C0.402 26.1 0.173 24.895 0.102 23.333C0.019 21.526 0 20.924 0 16.324C0 11.726 0.019 11.124 0.102 9.315C0.173 7.753 0.402 6.548 0.845 5.409C1.269 4.317 1.824 3.465 2.644 2.645C3.466 1.824 4.318 1.269 5.409 0.846C6.549 0.402 7.754 0.173 9.315 0.102C11.131 0.019 11.734 0 16.324 0C20.914 0 21.518 0.019 23.333 0.102C24.895 0.173 26.099 0.402 27.24 0.846C28.33 1.269 29.183 1.825 30.004 2.645C30.824 3.465 31.379 4.317 31.803 5.409C32.246 6.549 32.475 7.754 32.547 9.315C32.629 11.122 32.648 11.723 32.648 16.324C32.648 20.925 32.629 21.526 32.547 23.333ZM30.989 9.387C30.907 7.61 30.604 6.629 30.35 5.973C30.003 5.082 29.57 4.416 28.901 3.748C28.233 3.078 27.567 2.646 26.675 2.299C26.019 2.044 25.038 1.741 23.262 1.66C21.448 1.577 20.904 1.56 16.324 1.56C11.744 1.56 11.2 1.577 9.386 1.66C7.61 1.741 6.63 2.044 5.973 2.299C5.082 2.646 4.416 3.078 3.747 3.748C3.078 4.417 2.645 5.083 2.299 5.973C2.044 6.629 1.741 7.612 1.66 9.387C1.577 11.201 1.559 11.745 1.559 16.324C1.559 20.903 1.577 21.446 1.66 23.262C1.741 25.037 2.044 26.018 2.299 26.674C2.645 27.565 3.078 28.231 3.747 28.901C4.417 29.57 5.083 30.003 5.974 30.35C6.629 30.604 7.61 30.907 9.386 30.988C11.203 31.071 11.747 31.089 16.324 31.089C20.901 31.089 21.445 31.071 23.262 30.988C25.038 30.907 26.019 30.604 26.675 30.35C27.567 30.003 28.232 29.569 28.901 28.902C29.57 28.232 30.003 27.566 30.35 26.674C30.604 26.02 30.907 25.04 30.989 23.262C31.072 21.439 31.089 20.893 31.089 16.324C31.089 11.755 31.072 11.21 30.989 9.387ZM25.444 9.887C23.964 9.887 22.761 8.684 22.761 7.205C22.761 5.725 23.964 4.522 25.444 4.522C26.923 4.522 28.126 5.725 28.126 7.205C28.126 8.684 26.923 9.887 25.444 9.887ZM25.444 5.788C24.662 5.788 24.026 6.423 24.026 7.205C24.026 7.987 24.662 8.623 25.444 8.623C26.225 8.623 26.861 7.987 26.861 7.205C26.861 6.423 26.225 5.788 25.444 5.788ZM16.324 24.337C11.906 24.337 8.311 20.743 8.311 16.324C8.311 11.906 11.906 8.311 16.324 8.311C20.743 8.311 24.337 11.906 24.337 16.324C24.337 20.743 20.743 24.337 16.324 24.337ZM16.324 9.87C12.766 9.87 9.87 12.766 9.87 16.324C9.87 19.882 12.766 22.778 16.324 22.778C19.883 22.778 22.778 19.882 22.778 16.324C22.778 12.766 19.883 9.87 16.324 9.87Z"/>
    </symbol>
    <symbol id="yt" viewBox="0 0 35 34">
        <path fill-rule="evenodd" clip-rule="evenodd" d="M17.5 34C7.85042 34 0 26.3739 0 17C0 7.62612 7.85042 0 17.5 0C27.1496 0 35 7.62612 35 17C35 26.3739 27.1496 34 17.5 34ZM17.5 1.41723C8.65455 1.41723 1.45792 8.40728 1.45792 17C1.45792 25.5927 8.65455 32.5828 17.5 32.5828C26.3454 32.5828 33.5421 25.5927 33.5421 17C33.5421 8.40728 26.3454 1.41723 17.5 1.41723ZM25.0141 23.9987C22.5206 24.1765 20.0103 24.2649 17.5 24.2649C14.9897 24.2649 12.4784 24.1765 9.98587 23.9987C8.89391 23.9209 8.00571 23.0859 7.87515 22.0117C7.46863 18.6863 7.46863 15.3137 7.87515 11.9893C8.00571 10.9141 8.89391 10.0791 9.98587 10.0013C14.9719 9.64675 20.0281 9.64675 25.0141 10.0013C26.1061 10.0791 26.9933 10.9141 27.1249 11.9893C27.5314 15.3137 27.5314 18.6863 27.1249 22.0117C26.9943 23.0859 26.1061 23.9209 25.0141 23.9987ZM25.8183 12.1392C25.7609 11.6722 25.3831 11.309 24.9182 11.2763C22.4563 11.1015 19.9787 11.014 17.5 11.014C15.0213 11.014 12.5427 11.1015 10.0818 11.2763C9.61694 11.309 9.23812 11.6722 9.18174 12.1392C8.78709 15.3647 8.78709 18.6353 9.18174 21.8608C9.23812 22.3278 9.61694 22.691 10.0818 22.7237C15.0045 23.0744 19.9955 23.0744 24.9172 22.7237C25.3831 22.691 25.7609 22.3278 25.8183 21.8608C26.2119 18.6353 26.2119 15.3647 25.8183 12.1392ZM20.767 17.4967L16.2795 19.993C16.14 20.0699 15.9847 20.1093 15.8294 20.1093C15.6731 20.1093 15.5159 20.0689 15.3764 19.9911C15.0985 19.8345 14.9254 19.5433 14.9254 19.2301V14.2386C14.9254 13.9263 15.0975 13.6352 15.3754 13.4785C15.6534 13.3219 15.9995 13.321 16.2785 13.4757L20.767 15.9719C21.0479 16.1285 21.222 16.4206 21.222 16.7348C21.222 17.049 21.0479 17.3411 20.767 17.4967ZM16.2409 14.9275V18.5412L19.4901 16.7348L16.2409 14.9275Z"/>
    </symbol>
    <symbol id="menu" viewBox="0 0 24 14">
        <path fill-rule="evenodd" clip-rule="evenodd" d="M0 12H19.1V13.7634H0V12Z"/>
        <path fill-rule="evenodd" clip-rule="evenodd" d="M3 6H23V8H3V6Z"/>
        <path fill-rule="evenodd" clip-rule="evenodd" d="M0 0H19V2H0V0Z"/>
    </symbol>
    <symbol id="logo" viewBox="0 0 197 69">
        <path d="M29.2686 49.4137L20.9088 67.7896H57.3465L59.5133 63.0257L65.7063 49.4137H29.2686Z"/>
        <path d="M33.6024 39.8901L33.6009 39.893L48.9881 39.8901L42.7952 26.2781L40.6283 21.5142H31.5071L31.8105 20.8459L36.0684 11.4898L36.067 11.4869L30.8401 0L25.6147 11.4869L21.3568 20.8445L21.0519 21.5142H4.33376L12.6921 39.8901L0 67.7896H10.4551L23.1473 39.8901H33.6024Z"/>
        <path fill-rule="evenodd" clip-rule="evenodd" d="M184.256 38.263V7.61166H189.074V33.8841H197V38.263H184.256V38.263ZM167.265 7.61166H180.402V11.9906H172.081V20.5296H178.693V24.9086H172.081V33.8855H180.402V38.2645H167.265V7.61166ZM158.418 34.4965V29.6797C158.418 26.8333 157.455 25.783 155.265 25.783H153.601V38.2616H148.783V7.61166H156.053C161.045 7.61166 163.192 9.9328 163.192 14.6609V17.0694C163.192 20.222 162.184 22.2369 160.039 23.2429V23.3302C162.447 24.3376 163.236 26.6144 163.236 29.8099V34.5395C163.236 36.0278 163.28 37.1225 163.761 38.2616H158.856C158.594 37.4731 158.418 36.9923 158.418 34.4965ZM158.374 15.1432C158.374 12.9537 157.63 11.9906 155.922 11.9906H153.601V21.4054H155.484C157.281 21.4054 158.374 20.6169 158.374 18.1656V15.1446V15.1432ZM139.98 32.702H134.068L133.236 38.263H128.813L133.718 7.61166H140.769L145.673 38.263H140.813L139.981 32.702H139.98ZM137.046 13.041H136.959L134.682 28.542H139.323L137.046 13.041ZM120.361 26.7461H118.084V38.2616H113.266V7.61166H120.361C125.178 7.61166 127.543 10.282 127.543 15.1876V19.1716C127.543 24.0757 125.178 26.7475 120.361 26.7475V26.7461ZM122.725 14.8799C122.725 12.6904 121.893 11.9906 120.361 11.9906H118.084V22.3685H120.361C121.893 22.3685 122.725 21.6673 122.725 19.4778V14.8799V14.8799ZM102.974 26.7461H100.697V38.2616H95.8795V7.61166H102.974C107.792 7.61166 110.156 10.282 110.156 15.1876V19.1716C110.156 24.0757 107.792 26.7475 102.974 26.7475V26.7461ZM105.338 14.8799C105.338 12.6904 104.507 11.9906 102.974 11.9906H100.697V22.3685H102.974C104.507 22.3685 105.338 21.6673 105.338 19.4778V14.8799V14.8799ZM87.076 32.7006H81.1636L80.332 38.2616H75.9095L80.8144 7.61023H87.8646L92.7694 38.2616H87.909L87.0774 32.7006H87.076ZM84.142 13.0396H84.0547L81.7776 28.5406H86.4191L84.142 13.0396Z"/>
        <path fill-rule="evenodd" clip-rule="evenodd" d="M123.528 53.631C123.528 52.3173 123.003 51.8178 122.082 51.8178C121.162 51.8178 120.637 52.3173 120.637 53.631C120.637 54.9447 121.215 55.9693 123.107 57.6236C125.524 59.7515 126.286 61.2756 126.286 63.3763C126.286 66.3185 124.815 68 121.976 68C119.138 68 117.668 66.3185 117.668 63.3763V62.2472H120.401V63.5609C120.401 64.8746 120.979 65.3469 121.898 65.3469C122.817 65.3469 123.395 64.8746 123.395 63.5609C123.395 62.2472 122.817 61.2226 120.925 59.5683C118.507 57.4404 117.746 55.9163 117.746 53.8156C117.746 50.8734 119.191 49.1919 122.002 49.1919C124.813 49.1919 126.259 50.8734 126.259 53.8156V54.3937H123.527V53.6324L123.528 53.631ZM113.306 67.7911H110.416V52.0296H107.395V49.4023H116.327V52.0296H113.306V67.7911V67.7911ZM103.952 64.4553H100.405L99.9055 67.7911H97.252L100.195 49.4023H104.424L107.366 67.7911H104.45L103.95 64.4553H103.952ZM102.191 52.6593H102.138L100.771 61.9596H103.557L102.19 52.6593H102.191ZM91.2595 68.0014C88.4213 68.0014 86.8713 66.32 86.8713 63.3778V53.8156C86.8713 50.8734 88.4213 49.1919 91.2595 49.1919C94.0976 49.1919 95.6476 50.8734 95.6476 53.8156V63.3778C95.6476 66.32 94.0976 68.0014 91.2595 68.0014ZM92.7565 53.6324C92.7565 52.3187 92.1783 51.8193 91.2595 51.8193C90.3406 51.8193 89.7624 52.3187 89.7624 53.6324V63.5624C89.7624 64.8761 90.3406 65.3755 91.2595 65.3755C92.1783 65.3755 92.7565 64.8761 92.7565 63.5624V53.6324ZM80.4594 67.7925H75.9138V49.4037H80.2748C83.2703 49.4037 84.557 50.7961 84.557 53.6324V54.2892C84.557 56.1811 83.9788 57.3631 82.6921 57.967V58.02C84.2421 58.6239 84.8461 59.9905 84.8461 61.9338V63.4307C84.8461 66.2685 83.3491 67.7911 80.458 67.7911L80.4594 67.7925ZM81.6674 53.9215C81.6674 52.6078 81.2208 52.0296 80.1961 52.0296H78.8035V56.8894H79.9327C81.0104 56.8894 81.6659 56.4172 81.6659 54.9461V53.9215H81.6674ZM81.9565 61.7492C81.9565 60.042 81.4054 59.5168 80.0916 59.5168H78.8049V65.1651H80.4608C81.4326 65.1651 81.9579 64.7186 81.9579 63.352V61.7492H81.9565Z"/>
    </symbol>
    <symbol id="logo-vertical" viewBox="0 0 47 61">
        <path fill-rule="evenodd" clip-rule="evenodd" d="M32.4807 55.5951C32.4807 55.1009 32.2768 54.9131 31.9196 54.9131C31.5624 54.9131 31.3586 55.1009 31.3586 55.5951C31.3586 56.0892 31.583 56.4746 32.3174 57.0969C33.2556 57.8973 33.5512 58.4706 33.5512 59.2608C33.5512 60.3675 32.9801 61 31.8785 61C30.7769 61 30.2064 60.3675 30.2064 59.2608V58.8361H31.2669V59.3303C31.2669 59.8244 31.4913 60.002 31.848 60.002C32.2046 60.002 32.429 59.8244 32.429 59.3303C32.429 58.8361 32.2046 58.4507 31.4702 57.8284C30.532 57.028 30.2364 56.4547 30.2364 55.6645C30.2364 54.5578 30.7975 53.9253 31.8885 53.9253C32.9795 53.9253 33.5406 54.5578 33.5406 55.6645V55.882H32.4801V55.5956L32.4807 55.5951ZM28.5132 60.9214H27.3917V54.9927H26.219V54.0044H29.6859V54.9927H28.5132V60.9214ZM24.8824 59.6667H23.5059L23.312 60.9214H22.2821L23.4242 54.0044H25.0658L26.2079 60.9214H25.0757L24.8819 59.6667H24.8824ZM24.1992 55.2296H24.1786L23.6481 58.7279H24.7291L24.1986 55.2296H24.1992ZM19.9562 61.0006C18.8546 61.0006 18.253 60.3681 18.253 59.2614V55.6645C18.253 54.5578 18.8546 53.9253 19.9562 53.9253C21.0577 53.9253 21.6594 54.5578 21.6594 55.6645V59.2614C21.6594 60.3681 21.0577 61.0006 19.9562 61.0006ZM20.5372 55.5956C20.5372 55.1015 20.3128 54.9136 19.9562 54.9136C19.5995 54.9136 19.3751 55.1015 19.3751 55.5956V59.3308C19.3751 59.8249 19.5995 60.0128 19.9562 60.0128C20.3128 60.0128 20.5372 59.8249 20.5372 59.3308V55.5956ZM15.7643 60.922H14V54.005H15.6926C16.8553 54.005 17.3547 54.5287 17.3547 55.5956V55.8427C17.3547 56.5543 17.1303 56.9989 16.6309 57.2261V57.246C17.2325 57.4732 17.4669 57.9872 17.4669 58.7182V59.2813C17.4669 60.3487 16.8859 60.9214 15.7637 60.9214L15.7643 60.922ZM16.2331 55.7043C16.2331 55.2102 16.0598 54.9927 15.6621 54.9927H15.1216V56.8207H15.5599C15.9782 56.8207 16.2326 56.6431 16.2326 56.0898V55.7043H16.2331ZM16.3454 58.6488C16.3454 58.0066 16.1315 57.809 15.6215 57.809H15.1221V59.9337H15.7649C16.142 59.9337 16.3459 59.7657 16.3459 59.2517V58.6488H16.3454Z"/>
        <path fill-rule="evenodd" clip-rule="evenodd" d="M42.0537 49.3422V37.8126H43.9236V47.695H47V49.3422H42.0537ZM35.4587 37.8126H40.5578V39.4597H37.328V42.6717H39.8945V44.3189H37.328V47.6955H40.5578V49.3427H35.4587V37.8131V37.8126ZM32.0251 47.9254V46.1135C32.0251 45.0428 31.6513 44.6477 30.8013 44.6477H30.1553V49.3416H28.2854V37.812H31.1069C33.0445 37.812 33.8778 38.6851 33.8778 40.4636V41.3696C33.8778 42.5554 33.4867 43.3133 32.654 43.6917V43.7246C33.5889 44.1035 33.895 44.96 33.895 46.162V47.941C33.895 48.5008 33.9122 48.9126 34.0988 49.3411H32.1951C32.0935 49.0445 32.0251 48.8636 32.0251 47.9248V47.9254ZM32.0079 40.6456C32.0079 39.822 31.719 39.4597 31.0563 39.4597H30.1553V43.0011H30.8863C31.5835 43.0011 32.0079 42.7045 32.0079 41.7824V40.6461V40.6456ZM24.8685 47.2504H22.5737L22.2509 49.3422H20.5344L22.4381 37.8126H25.1746L27.0783 49.3422H25.1918L24.8691 47.2504H24.8685ZM23.7297 39.8548H23.6958L22.812 45.6856H24.6135L23.7297 39.8548ZM17.2536 45.01H16.3698V49.3416H14.4999V37.812H17.2536C19.1234 37.812 20.0411 38.8165 20.0411 40.6617V42.1603C20.0411 44.005 19.1234 45.01 17.2536 45.01ZM18.1713 40.5465C18.1713 39.7229 17.8485 39.4597 17.2536 39.4597H16.3698V43.3634H17.2536C17.8485 43.3634 18.1713 43.0996 18.1713 42.276V40.5465ZM10.5052 45.01H9.62143V49.3416H7.75158V37.812H10.5052C12.3751 37.812 13.2928 38.8165 13.2928 40.6617V42.1603C13.2928 44.005 12.3751 45.01 10.5052 45.01ZM11.4229 40.5465C11.4229 39.7229 11.1002 39.4597 10.5052 39.4597H9.62143V43.3634H10.5052C11.1002 43.3634 11.4229 43.0996 11.4229 42.276V40.5465ZM4.33464 47.2498H2.03983L1.71708 49.3416H0L1.90373 37.812H4.64017L6.5439 49.3416H4.65739L4.33464 47.2498ZM3.19585 39.8543H3.16196L2.27814 45.685H4.07966L3.19585 39.8543Z"/>
        <path d="M21.6904 24.1729L17.4707 33.1623H35.8636L36.9574 30.832L40.0833 24.1729H21.6904Z"/>
        <path d="M23.8779 19.5141L23.8768 19.5157L31.644 19.5141L28.5181 12.8549L27.4243 10.5246H22.8203L22.9736 10.1979L25.1223 5.62081L25.1217 5.61974L22.4836 0L19.8455 5.61974L17.6968 10.1968L17.5429 10.5246H9.10361L13.3233 19.5141L6.91602 33.1624H12.1934L18.6006 19.5141H23.8779Z"/>
    </symbol>
    </symbol>
    <symbol id="logo" viewBox="0 0 197 69"></symbol>
    <symbol id="logo" viewBox="0 0 197 69"></symbol>
    <symbol id="logo" viewBox="0 0 197 69"></symbol>
</svg>
