<svg xmlns='http://www.w3.org/2000/svg' xmlns:xlink="http://www.w3.org/1999/xlink" version="1" style='display: none;'>
    <symbol id="insta" viewBox="0 0 33 33">
        <path fill-rule="evenodd" clip-rule="evenodd" d="M32.547 23.333C32.475 24.895 32.246 26.099 31.803 27.239C31.379 28.331 30.824 29.183 30.004 30.003C29.183 30.825 28.33 31.38 27.239 31.804C26.099 32.246 24.895 32.476 23.333 32.546C21.527 32.629 20.926 32.648 16.324 32.648C11.722 32.648 11.121 32.629 9.315 32.546C7.754 32.476 6.549 32.246 5.408 31.804C4.318 31.38 3.465 30.825 2.644 30.003C1.824 29.183 1.269 28.331 0.845 27.239C0.402 26.1 0.173 24.895 0.102 23.333C0.019 21.526 0 20.924 0 16.324C0 11.726 0.019 11.124 0.102 9.315C0.173 7.753 0.402 6.548 0.845 5.409C1.269 4.317 1.824 3.465 2.644 2.645C3.466 1.824 4.318 1.269 5.409 0.846C6.549 0.402 7.754 0.173 9.315 0.102C11.131 0.019 11.734 0 16.324 0C20.914 0 21.518 0.019 23.333 0.102C24.895 0.173 26.099 0.402 27.24 0.846C28.33 1.269 29.183 1.825 30.004 2.645C30.824 3.465 31.379 4.317 31.803 5.409C32.246 6.549 32.475 7.754 32.547 9.315C32.629 11.122 32.648 11.723 32.648 16.324C32.648 20.925 32.629 21.526 32.547 23.333ZM30.989 9.387C30.907 7.61 30.604 6.629 30.35 5.973C30.003 5.082 29.57 4.416 28.901 3.748C28.233 3.078 27.567 2.646 26.675 2.299C26.019 2.044 25.038 1.741 23.262 1.66C21.448 1.577 20.904 1.56 16.324 1.56C11.744 1.56 11.2 1.577 9.386 1.66C7.61 1.741 6.63 2.044 5.973 2.299C5.082 2.646 4.416 3.078 3.747 3.748C3.078 4.417 2.645 5.083 2.299 5.973C2.044 6.629 1.741 7.612 1.66 9.387C1.577 11.201 1.559 11.745 1.559 16.324C1.559 20.903 1.577 21.446 1.66 23.262C1.741 25.037 2.044 26.018 2.299 26.674C2.645 27.565 3.078 28.231 3.747 28.901C4.417 29.57 5.083 30.003 5.974 30.35C6.629 30.604 7.61 30.907 9.386 30.988C11.203 31.071 11.747 31.089 16.324 31.089C20.901 31.089 21.445 31.071 23.262 30.988C25.038 30.907 26.019 30.604 26.675 30.35C27.567 30.003 28.232 29.569 28.901 28.902C29.57 28.232 30.003 27.566 30.35 26.674C30.604 26.02 30.907 25.04 30.989 23.262C31.072 21.439 31.089 20.893 31.089 16.324C31.089 11.755 31.072 11.21 30.989 9.387ZM25.444 9.887C23.964 9.887 22.761 8.684 22.761 7.205C22.761 5.725 23.964 4.522 25.444 4.522C26.923 4.522 28.126 5.725 28.126 7.205C28.126 8.684 26.923 9.887 25.444 9.887ZM25.444 5.788C24.662 5.788 24.026 6.423 24.026 7.205C24.026 7.987 24.662 8.623 25.444 8.623C26.225 8.623 26.861 7.987 26.861 7.205C26.861 6.423 26.225 5.788 25.444 5.788ZM16.324 24.337C11.906 24.337 8.311 20.743 8.311 16.324C8.311 11.906 11.906 8.311 16.324 8.311C20.743 8.311 24.337 11.906 24.337 16.324C24.337 20.743 20.743 24.337 16.324 24.337ZM16.324 9.87C12.766 9.87 9.87 12.766 9.87 16.324C9.87 19.882 12.766 22.778 16.324 22.778C19.883 22.778 22.778 19.882 22.778 16.324C22.778 12.766 19.883 9.87 16.324 9.87Z"/>
    </symbol>
    <symbol id="yt" viewBox="0 0 35 34">
        <path fill-rule="evenodd" clip-rule="evenodd" d="M17.5 34C7.85042 34 0 26.3739 0 17C0 7.62612 7.85042 0 17.5 0C27.1496 0 35 7.62612 35 17C35 26.3739 27.1496 34 17.5 34ZM17.5 1.41723C8.65455 1.41723 1.45792 8.40728 1.45792 17C1.45792 25.5927 8.65455 32.5828 17.5 32.5828C26.3454 32.5828 33.5421 25.5927 33.5421 17C33.5421 8.40728 26.3454 1.41723 17.5 1.41723ZM25.0141 23.9987C22.5206 24.1765 20.0103 24.2649 17.5 24.2649C14.9897 24.2649 12.4784 24.1765 9.98587 23.9987C8.89391 23.9209 8.00571 23.0859 7.87515 22.0117C7.46863 18.6863 7.46863 15.3137 7.87515 11.9893C8.00571 10.9141 8.89391 10.0791 9.98587 10.0013C14.9719 9.64675 20.0281 9.64675 25.0141 10.0013C26.1061 10.0791 26.9933 10.9141 27.1249 11.9893C27.5314 15.3137 27.5314 18.6863 27.1249 22.0117C26.9943 23.0859 26.1061 23.9209 25.0141 23.9987ZM25.8183 12.1392C25.7609 11.6722 25.3831 11.309 24.9182 11.2763C22.4563 11.1015 19.9787 11.014 17.5 11.014C15.0213 11.014 12.5427 11.1015 10.0818 11.2763C9.61694 11.309 9.23812 11.6722 9.18174 12.1392C8.78709 15.3647 8.78709 18.6353 9.18174 21.8608C9.23812 22.3278 9.61694 22.691 10.0818 22.7237C15.0045 23.0744 19.9955 23.0744 24.9172 22.7237C25.3831 22.691 25.7609 22.3278 25.8183 21.8608C26.2119 18.6353 26.2119 15.3647 25.8183 12.1392ZM20.767 17.4967L16.2795 19.993C16.14 20.0699 15.9847 20.1093 15.8294 20.1093C15.6731 20.1093 15.5159 20.0689 15.3764 19.9911C15.0985 19.8345 14.9254 19.5433 14.9254 19.2301V14.2386C14.9254 13.9263 15.0975 13.6352 15.3754 13.4785C15.6534 13.3219 15.9995 13.321 16.2785 13.4757L20.767 15.9719C21.0479 16.1285 21.222 16.4206 21.222 16.7348C21.222 17.049 21.0479 17.3411 20.767 17.4967ZM16.2409 14.9275V18.5412L19.4901 16.7348L16.2409 14.9275Z"/>
    </symbol>
    <symbol id="menu" viewBox="0 0 24 14">
        <path fill-rule="evenodd" clip-rule="evenodd" d="M0 12H19.1V13.7634H0V12Z"/>
        <path fill-rule="evenodd" clip-rule="evenodd" d="M3 6H23V8H3V6Z"/>
        <path fill-rule="evenodd" clip-rule="evenodd" d="M0 0H19V2H0V0Z"/>
    </symbol>
    <symbol id="logo" viewBox="0 0 197 69">
        <path d="M29.2686 49.4137L20.9088 67.7896H57.3465L59.5133 63.0257L65.7063 49.4137H29.2686Z"/>
        <path d="M33.6024 39.8901L33.6009 39.893L48.9881 39.8901L42.7952 26.2781L40.6283 21.5142H31.5071L31.8105 20.8459L36.0684 11.4898L36.067 11.4869L30.8401 0L25.6147 11.4869L21.3568 20.8445L21.0519 21.5142H4.33376L12.6921 39.8901L0 67.7896H10.4551L23.1473 39.8901H33.6024Z"/>
        <path fill-rule="evenodd" clip-rule="evenodd" d="M184.256 38.263V7.61166H189.074V33.8841H197V38.263H184.256V38.263ZM167.265 7.61166H180.402V11.9906H172.081V20.5296H178.693V24.9086H172.081V33.8855H180.402V38.2645H167.265V7.61166ZM158.418 34.4965V29.6797C158.418 26.8333 157.455 25.783 155.265 25.783H153.601V38.2616H148.783V7.61166H156.053C161.045 7.61166 163.192 9.9328 163.192 14.6609V17.0694C163.192 20.222 162.184 22.2369 160.039 23.2429V23.3302C162.447 24.3376 163.236 26.6144 163.236 29.8099V34.5395C163.236 36.0278 163.28 37.1225 163.761 38.2616H158.856C158.594 37.4731 158.418 36.9923 158.418 34.4965ZM158.374 15.1432C158.374 12.9537 157.63 11.9906 155.922 11.9906H153.601V21.4054H155.484C157.281 21.4054 158.374 20.6169 158.374 18.1656V15.1446V15.1432ZM139.98 32.702H134.068L133.236 38.263H128.813L133.718 7.61166H140.769L145.673 38.263H140.813L139.981 32.702H139.98ZM137.046 13.041H136.959L134.682 28.542H139.323L137.046 13.041ZM120.361 26.7461H118.084V38.2616H113.266V7.61166H120.361C125.178 7.61166 127.543 10.282 127.543 15.1876V19.1716C127.543 24.0757 125.178 26.7475 120.361 26.7475V26.7461ZM122.725 14.8799C122.725 12.6904 121.893 11.9906 120.361 11.9906H118.084V22.3685H120.361C121.893 22.3685 122.725 21.6673 122.725 19.4778V14.8799V14.8799ZM102.974 26.7461H100.697V38.2616H95.8795V7.61166H102.974C107.792 7.61166 110.156 10.282 110.156 15.1876V19.1716C110.156 24.0757 107.792 26.7475 102.974 26.7475V26.7461ZM105.338 14.8799C105.338 12.6904 104.507 11.9906 102.974 11.9906H100.697V22.3685H102.974C104.507 22.3685 105.338 21.6673 105.338 19.4778V14.8799V14.8799ZM87.076 32.7006H81.1636L80.332 38.2616H75.9095L80.8144 7.61023H87.8646L92.7694 38.2616H87.909L87.0774 32.7006H87.076ZM84.142 13.0396H84.0547L81.7776 28.5406H86.4191L84.142 13.0396Z"/>
        <path fill-rule="evenodd" clip-rule="evenodd" d="M123.528 53.631C123.528 52.3173 123.003 51.8178 122.082 51.8178C121.162 51.8178 120.637 52.3173 120.637 53.631C120.637 54.9447 121.215 55.9693 123.107 57.6236C125.524 59.7515 126.286 61.2756 126.286 63.3763C126.286 66.3185 124.815 68 121.976 68C119.138 68 117.668 66.3185 117.668 63.3763V62.2472H120.401V63.5609C120.401 64.8746 120.979 65.3469 121.898 65.3469C122.817 65.3469 123.395 64.8746 123.395 63.5609C123.395 62.2472 122.817 61.2226 120.925 59.5683C118.507 57.4404 117.746 55.9163 117.746 53.8156C117.746 50.8734 119.191 49.1919 122.002 49.1919C124.813 49.1919 126.259 50.8734 126.259 53.8156V54.3937H123.527V53.6324L123.528 53.631ZM113.306 67.7911H110.416V52.0296H107.395V49.4023H116.327V52.0296H113.306V67.7911V67.7911ZM103.952 64.4553H100.405L99.9055 67.7911H97.252L100.195 49.4023H104.424L107.366 67.7911H104.45L103.95 64.4553H103.952ZM102.191 52.6593H102.138L100.771 61.9596H103.557L102.19 52.6593H102.191ZM91.2595 68.0014C88.4213 68.0014 86.8713 66.32 86.8713 63.3778V53.8156C86.8713 50.8734 88.4213 49.1919 91.2595 49.1919C94.0976 49.1919 95.6476 50.8734 95.6476 53.8156V63.3778C95.6476 66.32 94.0976 68.0014 91.2595 68.0014ZM92.7565 53.6324C92.7565 52.3187 92.1783 51.8193 91.2595 51.8193C90.3406 51.8193 89.7624 52.3187 89.7624 53.6324V63.5624C89.7624 64.8761 90.3406 65.3755 91.2595 65.3755C92.1783 65.3755 92.7565 64.8761 92.7565 63.5624V53.6324ZM80.4594 67.7925H75.9138V49.4037H80.2748C83.2703 49.4037 84.557 50.7961 84.557 53.6324V54.2892C84.557 56.1811 83.9788 57.3631 82.6921 57.967V58.02C84.2421 58.6239 84.8461 59.9905 84.8461 61.9338V63.4307C84.8461 66.2685 83.3491 67.7911 80.458 67.7911L80.4594 67.7925ZM81.6674 53.9215C81.6674 52.6078 81.2208 52.0296 80.1961 52.0296H78.8035V56.8894H79.9327C81.0104 56.8894 81.6659 56.4172 81.6659 54.9461V53.9215H81.6674ZM81.9565 61.7492C81.9565 60.042 81.4054 59.5168 80.0916 59.5168H78.8049V65.1651H80.4608C81.4326 65.1651 81.9579 64.7186 81.9579 63.352V61.7492H81.9565Z"/>
    </symbol>
    <symbol id="logo-vertical" viewBox="0 0 47 61">
        <path fill-rule="evenodd" clip-rule="evenodd" d="M32.4807 55.5951C32.4807 55.1009 32.2768 54.9131 31.9196 54.9131C31.5624 54.9131 31.3586 55.1009 31.3586 55.5951C31.3586 56.0892 31.583 56.4746 32.3174 57.0969C33.2556 57.8973 33.5512 58.4706 33.5512 59.2608C33.5512 60.3675 32.9801 61 31.8785 61C30.7769 61 30.2064 60.3675 30.2064 59.2608V58.8361H31.2669V59.3303C31.2669 59.8244 31.4913 60.002 31.848 60.002C32.2046 60.002 32.429 59.8244 32.429 59.3303C32.429 58.8361 32.2046 58.4507 31.4702 57.8284C30.532 57.028 30.2364 56.4547 30.2364 55.6645C30.2364 54.5578 30.7975 53.9253 31.8885 53.9253C32.9795 53.9253 33.5406 54.5578 33.5406 55.6645V55.882H32.4801V55.5956L32.4807 55.5951ZM28.5132 60.9214H27.3917V54.9927H26.219V54.0044H29.6859V54.9927H28.5132V60.9214ZM24.8824 59.6667H23.5059L23.312 60.9214H22.2821L23.4242 54.0044H25.0658L26.2079 60.9214H25.0757L24.8819 59.6667H24.8824ZM24.1992 55.2296H24.1786L23.6481 58.7279H24.7291L24.1986 55.2296H24.1992ZM19.9562 61.0006C18.8546 61.0006 18.253 60.3681 18.253 59.2614V55.6645C18.253 54.5578 18.8546 53.9253 19.9562 53.9253C21.0577 53.9253 21.6594 54.5578 21.6594 55.6645V59.2614C21.6594 60.3681 21.0577 61.0006 19.9562 61.0006ZM20.5372 55.5956C20.5372 55.1015 20.3128 54.9136 19.9562 54.9136C19.5995 54.9136 19.3751 55.1015 19.3751 55.5956V59.3308C19.3751 59.8249 19.5995 60.0128 19.9562 60.0128C20.3128 60.0128 20.5372 59.8249 20.5372 59.3308V55.5956ZM15.7643 60.922H14V54.005H15.6926C16.8553 54.005 17.3547 54.5287 17.3547 55.5956V55.8427C17.3547 56.5543 17.1303 56.9989 16.6309 57.2261V57.246C17.2325 57.4732 17.4669 57.9872 17.4669 58.7182V59.2813C17.4669 60.3487 16.8859 60.9214 15.7637 60.9214L15.7643 60.922ZM16.2331 55.7043C16.2331 55.2102 16.0598 54.9927 15.6621 54.9927H15.1216V56.8207H15.5599C15.9782 56.8207 16.2326 56.6431 16.2326 56.0898V55.7043H16.2331ZM16.3454 58.6488C16.3454 58.0066 16.1315 57.809 15.6215 57.809H15.1221V59.9337H15.7649C16.142 59.9337 16.3459 59.7657 16.3459 59.2517V58.6488H16.3454Z"/>
        <path fill-rule="evenodd" clip-rule="evenodd" d="M42.0537 49.3422V37.8126H43.9236V47.695H47V49.3422H42.0537ZM35.4587 37.8126H40.5578V39.4597H37.328V42.6717H39.8945V44.3189H37.328V47.6955H40.5578V49.3427H35.4587V37.8131V37.8126ZM32.0251 47.9254V46.1135C32.0251 45.0428 31.6513 44.6477 30.8013 44.6477H30.1553V49.3416H28.2854V37.812H31.1069C33.0445 37.812 33.8778 38.6851 33.8778 40.4636V41.3696C33.8778 42.5554 33.4867 43.3133 32.654 43.6917V43.7246C33.5889 44.1035 33.895 44.96 33.895 46.162V47.941C33.895 48.5008 33.9122 48.9126 34.0988 49.3411H32.1951C32.0935 49.0445 32.0251 48.8636 32.0251 47.9248V47.9254ZM32.0079 40.6456C32.0079 39.822 31.719 39.4597 31.0563 39.4597H30.1553V43.0011H30.8863C31.5835 43.0011 32.0079 42.7045 32.0079 41.7824V40.6461V40.6456ZM24.8685 47.2504H22.5737L22.2509 49.3422H20.5344L22.4381 37.8126H25.1746L27.0783 49.3422H25.1918L24.8691 47.2504H24.8685ZM23.7297 39.8548H23.6958L22.812 45.6856H24.6135L23.7297 39.8548ZM17.2536 45.01H16.3698V49.3416H14.4999V37.812H17.2536C19.1234 37.812 20.0411 38.8165 20.0411 40.6617V42.1603C20.0411 44.005 19.1234 45.01 17.2536 45.01ZM18.1713 40.5465C18.1713 39.7229 17.8485 39.4597 17.2536 39.4597H16.3698V43.3634H17.2536C17.8485 43.3634 18.1713 43.0996 18.1713 42.276V40.5465ZM10.5052 45.01H9.62143V49.3416H7.75158V37.812H10.5052C12.3751 37.812 13.2928 38.8165 13.2928 40.6617V42.1603C13.2928 44.005 12.3751 45.01 10.5052 45.01ZM11.4229 40.5465C11.4229 39.7229 11.1002 39.4597 10.5052 39.4597H9.62143V43.3634H10.5052C11.1002 43.3634 11.4229 43.0996 11.4229 42.276V40.5465ZM4.33464 47.2498H2.03983L1.71708 49.3416H0L1.90373 37.812H4.64017L6.5439 49.3416H4.65739L4.33464 47.2498ZM3.19585 39.8543H3.16196L2.27814 45.685H4.07966L3.19585 39.8543Z"/>
        <path d="M21.6904 24.1729L17.4707 33.1623H35.8636L36.9574 30.832L40.0833 24.1729H21.6904Z"/>
        <path d="M23.8779 19.5141L23.8768 19.5157L31.644 19.5141L28.5181 12.8549L27.4243 10.5246H22.8203L22.9736 10.1979L25.1223 5.62081L25.1217 5.61974L22.4836 0L19.8455 5.61974L17.6968 10.1968L17.5429 10.5246H9.10361L13.3233 19.5141L6.91602 33.1624H12.1934L18.6006 19.5141H23.8779Z"/>
    </symbol>
        <symbol id="ship" viewBox="0 0 61 69" >
        <path fill-rule="evenodd" clip-rule="evenodd" d="M54.1552 68.8309C52.0802 68.8309 50.1302 68.0229 48.6642 66.5559L48.4542 66.3459C47.3782 65.3169 45.9722 64.7509 44.4902 64.7509C43.0072 64.7509 41.6012 65.3169 40.5302 66.3399C39.0562 67.8109 37.1042 68.6169 35.0282 68.6169C32.9522 68.6169 30.1002 67.8109 29.5302 66.3449C28.4532 65.3199 27.0472 64.7569 25.5662 64.7569C24.0852 64.7569 22.6792 65.3199 21.6072 66.3399L22.0532 66.7979L21.6022 66.3449L21.4062 66.5409C19.9392 68.0089 17.9892 68.8179 15.9152 68.8179C13.8412 68.8179 11.8912 68.0089 10.4252 66.5409L10.3322 66.4469H10.3312L10.2712 66.3879C9.2102 65.3309 7.8032 64.7489 6.3072 64.7489C4.8102 64.7489 3.4032 65.3309 2.3422 66.3869C2.1402 66.5849 1.8692 66.6959 1.5832 66.6959C1.2872 66.6959 1.0112 66.5799 0.8052 66.3679C0.6012 66.1609 0.4912 65.8859 0.4942 65.5959C0.4972 65.3049 0.6132 65.0319 0.8212 64.8289C1.9022 63.7489 3.2612 63.0189 4.7542 62.7119C5.2672 62.6069 5.7922 62.5539 6.3162 62.5539C7.3082 62.5539 8.2782 62.7409 9.2002 63.1079L9.8362 63.3619L2.4802 40.9789C2.3152 40.4689 2.5502 39.9169 3.0302 39.6809L10.7002 36.1979V19.0949C10.7002 18.4999 11.1842 18.0169 11.7792 18.0169H16.1372V9.86989C16.1372 9.27489 16.6202 8.79189 17.2152 8.79189H25.0122V5.55089C25.0122 3.63189 26.0442 1.84389 27.7072 0.883889C28.5252 0.410889 29.4572 0.160889 30.4022 0.160889C31.3472 0.160889 32.2782 0.410889 33.0972 0.883889C34.7592 1.84389 35.7912 3.63189 35.7912 5.55089V8.79189H43.5882C43.8722 8.79189 44.1502 8.90689 44.3512 9.10889C44.5512 9.30789 44.6662 9.58689 44.6662 9.86989V18.0169H49.0392C49.3232 18.0169 49.6012 18.1319 49.8012 18.3319C50.0022 18.5329 50.1172 18.8099 50.1172 19.0949V36.3089L57.7672 39.8319C58.2712 40.0639 58.5162 40.6339 58.3382 41.1579L50.2752 65.0089L50.4372 65.1499C51.4792 66.0559 52.8152 66.5559 54.1962 66.5559C54.2402 66.5559 54.2832 66.5549 54.3272 66.5539C55.7562 66.5209 57.1132 65.9579 58.1492 64.9719L58.4752 64.6449C58.6782 64.4439 58.9482 64.3329 59.2352 64.3329C59.5222 64.3329 59.7922 64.4439 59.9952 64.6459L60.5042 64.2729L59.9982 64.6489C60.2122 64.8559 60.3332 65.1429 60.3292 65.4409C60.3252 65.7379 60.1962 66.0229 59.9772 66.2239L59.6452 66.5559C58.1792 68.0229 56.2292 68.8309 54.1552 68.8309ZM22.1482 37.1199C22.2652 37.1199 22.3792 37.1379 22.4892 37.1749C22.7642 37.2659 22.9942 37.4679 23.1202 37.7289C23.2462 37.9889 23.2612 38.2939 23.1622 38.5659C23.0632 38.8379 22.8552 39.0619 22.5912 39.1819L6.6772 46.8819L12.8962 65.6809L12.9982 65.7409C13.8902 66.2729 14.9102 66.5549 15.9472 66.5549C16.1592 66.5549 16.3732 66.5419 16.5832 66.5189C17.5902 66.4059 18.5572 66.0229 19.3692 65.4249V65.5119L20.1112 64.7709C21.5762 63.3019 23.5262 62.4939 25.6012 62.4939C27.6752 62.4939 29.6252 63.3019 31.0912 64.7709C32.1522 65.8269 33.5592 66.4089 35.0562 66.4089C36.5522 66.4089 37.9602 65.8269 39.0202 64.7719L39.3352 64.4569L39.3162 64.4479C40.4342 63.4399 41.8462 62.7729 43.3382 62.5539C43.7052 62.4999 44.0802 62.4729 44.4512 62.4729C45.7332 62.4729 47.0062 62.7989 48.1312 63.4139L48.4652 63.5969L54.1572 46.7709L38.4032 39.1429C38.1312 39.0209 37.9222 38.7969 37.8232 38.5249C37.7242 38.2529 37.7402 37.9479 37.8662 37.6859C37.9922 37.4259 38.2222 37.2239 38.4962 37.1329C38.6062 37.0959 38.7202 37.0779 38.8362 37.0779C39.0082 37.0779 39.1802 37.1199 39.3332 37.1989L54.8602 44.6989L55.9592 41.3839L38.9282 33.5369C36.6832 32.5049 34.2952 31.8929 31.8292 31.7179L31.4872 31.6939V58.3129C31.4872 58.9069 31.0032 59.3899 30.4092 59.3899C29.8142 59.3899 29.3312 58.9069 29.3312 58.3129V31.6969L28.9912 31.7179C26.5302 31.8759 24.1412 32.4689 21.8922 33.4789L12.2042 37.9529L4.8652 41.2819L5.9342 44.8139L21.6442 37.2439C21.8052 37.1619 21.9772 37.1199 22.1482 37.1199ZM30.4352 29.5249C33.7172 29.5249 36.8932 30.2189 39.8762 31.5859L47.9602 35.3169V20.1729H12.8562L12.8402 35.2859L20.9932 31.5869C23.9772 30.2189 27.1542 29.5249 30.4352 29.5249ZM18.2922 18.0169H42.5092V15.5329H24.1052C23.5102 15.5329 23.0272 15.0489 23.0272 14.4549C23.0272 13.8599 23.5102 13.3759 24.1052 13.3759H42.5092V10.9489H18.2922V18.0169ZM30.4152 2.31889C29.8482 2.31889 29.2892 2.46789 28.7982 2.75189C27.8012 3.32689 27.1822 4.40089 27.1822 5.55089V8.79289H33.6492V5.55089C33.6492 4.40089 33.0292 3.32789 32.0312 2.75189C31.5412 2.46789 30.9822 2.31889 30.4152 2.31889ZM43.5882 60.0049C42.3672 60.0049 41.2192 59.5289 40.3552 58.6659C39.4922 57.8019 39.0162 56.6539 39.0162 55.4329C39.0162 54.2129 39.4922 53.0639 40.3552 52.1989C41.2192 51.3359 42.3672 50.8609 43.5882 50.8609C44.7922 50.8609 45.9712 51.3479 46.8212 52.1989C47.6852 53.0639 48.1602 54.2129 48.1602 55.4329C48.1602 56.6539 47.6852 57.8019 46.8212 58.6659C45.9712 59.5169 44.7922 60.0049 43.5882 60.0049ZM43.2702 57.9049H43.5882C44.2372 57.9049 44.8682 57.6379 45.3202 57.1739C45.7722 56.7089 46.0212 56.0719 46.0042 55.4239C46.0042 54.4519 45.4192 53.5759 44.5132 53.2009C44.2182 53.0789 43.9072 53.0169 43.5882 53.0169C42.9432 53.0169 42.3362 53.2679 41.8802 53.7239C41.1872 54.4179 40.9812 55.4509 41.3562 56.3569C41.6902 57.1639 42.4212 57.7159 43.2692 57.8279L43.2702 57.9049ZM17.2152 60.0049C15.9942 60.0049 14.8462 59.5289 13.9832 58.6659C13.1192 57.8019 12.6432 56.6539 12.6432 55.4329C12.6432 54.2119 13.1192 53.0639 13.9832 52.1989C14.7702 51.4119 15.7952 50.9469 16.8962 50.8719V50.9159H17.2152C18.4282 50.9159 19.5692 51.3859 20.4302 52.2369C21.2922 53.0899 21.7742 54.2249 21.7882 55.4369C21.7882 56.6539 21.3122 57.8019 20.4482 58.6659C19.5852 59.5289 18.4372 60.0049 17.2152 60.0049ZM16.8962 57.9049H17.2152C17.8642 57.9049 18.4952 57.6379 18.9472 57.1739C19.4002 56.7089 19.6492 56.0709 19.6312 55.4239C19.6312 54.4519 19.0462 53.5759 18.1402 53.2009C17.8452 53.0789 17.5342 53.0169 17.2162 53.0169C16.5702 53.0169 15.9632 53.2679 15.5072 53.7239C14.8142 54.4179 14.6082 55.4509 14.9832 56.3569C15.3182 57.1639 16.0482 57.7159 16.8962 57.8279V57.9049ZM17.2152 25.7629C16.6212 25.7629 16.1372 25.2789 16.1372 24.6839C16.1372 24.0889 16.6212 23.6069 17.2152 23.6069H43.5882C44.1832 23.6069 44.6662 24.0889 44.6662 24.6839C44.6662 25.2789 44.1832 25.7629 43.5882 25.7629H17.2152Z" />
    </symbol>
       <symbol id="lifebuoy" viewBox="0 0 46 60" >
        <path fill-rule="evenodd" clip-rule="evenodd" d="M40.516 59.4971H5.48402C2.90202 59.4971 0.874023 57.4691 0.874023 54.8881V19.8561C0.874023 19.3031 1.24302 18.9341 1.79602 18.9341C4.83802 18.9341 7.32802 16.4451 7.32802 13.4031V3.26209C7.32802 1.69409 8.52602 0.496094 10.093 0.496094H13.781C14.15 0.496094 14.426 0.680094 14.611 1.05009L22.1 19.4871L31.389 1.05009C31.574 0.680094 31.85 0.496094 32.219 0.496094H35.906C37.474 0.496094 38.672 1.69409 38.672 3.26209V13.4031C38.672 16.4451 41.161 18.9341 44.204 18.9341C44.757 18.9341 45.125 19.3031 45.125 19.8561V54.8881C45.125 57.4691 43.097 59.4971 40.516 59.4971ZM2.71802 54.8871C2.71802 56.4541 3.91602 57.6531 5.48402 57.6531H22.078V53.9661H20.234C19.681 53.9661 19.312 53.5981 19.312 53.0441V51.2001H2.71802V54.8871ZM24.844 52.1221V48.4351H21.156V52.1221H24.844ZM2.71802 49.3561H19.312V47.5131C19.312 46.9601 19.681 46.5911 20.234 46.5911H22.078V43.8251H20.234C19.681 43.8251 19.312 43.4561 19.312 42.9031V41.0601H2.71802V49.3561ZM24.844 41.9811V38.2941H21.156V41.9811H24.844ZM22.078 21.8651L13.228 2.33909H10.093C9.54002 2.33909 9.17102 2.70809 9.17102 3.26109V13.4021C9.17102 17.1821 6.31302 20.2241 2.71802 20.6851V29.9971V39.2161H19.312V37.3721C19.312 36.8191 19.681 36.4501 20.234 36.4501H22.078V33.6841H20.234C19.681 33.6841 19.312 33.3161 19.312 32.7631V30.9191H10.093C9.54002 30.9191 9.17102 30.5501 9.17102 29.9971C9.17102 29.4441 9.54002 29.0751 10.093 29.0751H19.312V27.2311C19.312 26.6771 19.681 26.3091 20.234 26.3091H22.078V21.8651ZM21.156 28.1521V31.8401H24.844V28.1521H21.156ZM43.282 20.6851C39.686 20.2241 36.828 17.0891 36.828 13.4021V3.26109C36.828 2.70809 36.46 2.33909 35.906 2.33909H32.772L23.922 21.8641V26.3091H25.766C26.319 26.3091 26.687 26.6771 26.687 27.2311V29.0751H43.282V20.6851ZM43.282 30.9191H26.687V32.7631C26.687 33.3161 26.319 33.6841 25.766 33.6841H23.922V36.4501H25.766C26.319 36.4501 26.687 36.8191 26.687 37.3721V39.2161H43.282V30.9191ZM43.282 51.2001H33.141C32.588 51.2001 32.219 50.8321 32.219 50.2791C32.219 49.7261 32.588 49.3561 33.141 49.3561H43.282V41.0601H26.687V42.9031C26.687 43.4561 26.319 43.8251 25.766 43.8251H23.922V46.5911H25.766C26.319 46.5911 26.687 46.9601 26.687 47.5131V49.3561H28.531C29.084 49.3561 29.453 49.7261 29.453 50.2791C29.453 50.8321 29.084 51.2001 28.531 51.2001H26.687V53.0441C26.687 53.5981 26.319 53.9661 25.766 53.9661H23.922V57.6531H40.516C42.083 57.6531 43.282 56.4541 43.282 54.8871V51.2001ZM3.64002 29.0751H5.48402C6.03702 29.0751 6.40602 29.4441 6.40602 29.9971C6.40602 30.5501 6.03702 30.9191 5.48402 30.9191H3.64002C3.08702 30.9191 2.71802 30.5501 2.71802 29.9971C2.71802 29.4441 3.08702 29.0751 3.64002 29.0751Z" />
    </symbol>
      <symbol id="trucking" viewBox="0 0 64 47" >
        <path fill-rule="evenodd" clip-rule="evenodd" d="M63.9572 31.2681L59.6912 46.2231C59.5602 46.6801 59.1422 46.9971 58.6652 46.9971H5.33124C4.85424 46.9971 4.43624 46.6801 4.30524 46.2231L0.0392399 31.2681C-0.0527601 30.9451 0.0112399 30.5991 0.21224 30.3321C0.41424 30.0631 0.72924 29.9061 1.06424 29.9061H6.39724V11.7471C6.39724 11.1571 6.87524 10.6791 7.46424 10.6791H12.7972V1.06507C12.7972 0.47507 13.2752 -0.00292969 13.8642 -0.00292969H39.4652C39.7482 -0.00292969 40.0192 0.10907 40.2192 0.31007C40.4192 0.51007 40.5312 0.78207 40.5312 1.06507V9.61107C40.5312 9.89307 40.4192 10.1651 40.2192 10.3661C40.0192 10.5661 39.7482 10.6791 39.4652 10.6791H36.2652C35.6762 10.6791 35.1982 10.2001 35.1982 9.61107C35.1982 9.02007 35.6762 8.54207 36.2652 8.54207H38.3982V6.40607H19.1982V10.6791H20.2642C20.5472 10.6791 20.8192 10.7921 21.0192 10.9911C21.2192 11.1921 21.3312 11.4631 21.3312 11.7471V29.9061H23.4642V22.4281C23.4642 21.8391 23.9422 21.3601 24.5312 21.3601H27.7312V13.8831C27.7312 13.2931 28.2092 12.8151 28.7982 12.8151H50.1322C50.4152 12.8151 50.6862 12.9281 50.8862 13.1281C51.0862 13.3281 51.1992 13.6001 51.1992 13.8831V21.3601H56.5322C56.8152 21.3601 57.0862 21.4721 57.2862 21.6731C57.4862 21.8741 57.5992 22.1461 57.5992 22.4281V29.9061H62.9322C63.2672 29.9061 63.5822 30.0631 63.7842 30.3321C63.9852 30.5991 64.0492 30.9451 63.9572 31.2681ZM19.1982 4.27007H38.3982V2.13307H19.1982V4.27007ZM6.13524 44.8611H57.8622L59.0802 40.5881H4.91724L6.13524 44.8611ZM17.0642 2.13307H14.9312V10.6791H17.0642V2.13307ZM19.1982 12.8151H8.53124V29.9061H19.1982V12.8151ZM25.5982 23.4971V29.9061H34.1322V23.4971H25.5982ZM49.0652 14.9511H29.8652V21.3601H49.0652V14.9511ZM55.4662 23.4971H36.2652V29.9061H55.4662V23.4971ZM2.47824 32.0421L4.30624 38.4521H59.6892L61.5182 32.0421H2.47824ZM56.5322 36.3151H54.3992C53.8102 36.3151 53.3322 35.8371 53.3322 35.2461C53.3322 34.6571 53.8102 34.1781 54.3992 34.1781H56.5322C57.1212 34.1781 57.5992 34.6571 57.5992 35.2461C57.5992 35.8371 57.1212 36.3151 56.5322 36.3151ZM50.1322 36.3151H47.9982C47.4092 36.3151 46.9322 35.8371 46.9322 35.2461C46.9322 34.6571 47.4092 34.1781 47.9982 34.1781H50.1322C50.7212 34.1781 51.1992 34.6571 51.1992 35.2461C51.1992 35.8371 50.7212 36.3151 50.1322 36.3151ZM12.7972 17.0881H10.6642V14.9511H12.7972V17.0881ZM17.0642 17.0881H14.9312V14.9511H17.0642V17.0881Z" />
    </symbol>
        <symbol id="crowd" viewBox="0 0 55 50" >
        <path fill-rule="evenodd" clip-rule="evenodd" d="M34.1288 12.918C33.0318 13.463 32.0548 14.212 31.2488 15.119C30.1618 14.598 28.9438 14.306 27.6578 14.306C26.3718 14.306 25.1528 14.598 24.0668 15.119C23.2608 14.212 22.2838 13.463 21.1868 12.918C22.9478 11.619 24.0918 9.53105 24.0918 7.17705C24.0918 3.24505 20.8958 0.0500488 16.9598 0.0500488C13.0238 0.0500488 9.82785 3.24505 9.82785 7.17705C9.82785 9.53105 10.9708 11.619 12.7328 12.918C9.60185 14.473 7.45085 17.7011 7.45085 21.4331V21.84C4.68185 22.817 2.69585 25.46 2.69585 28.56C2.69585 30.915 3.84085 33.003 5.60285 34.302C4.68685 34.755 3.84085 35.3591 3.10285 36.0951C1.31985 37.8761 0.318848 40.294 0.318848 42.814V46.3791C0.318848 48.3471 1.91485 49.9431 3.88485 49.9431H15.7708C16.6838 49.9431 17.5168 49.599 18.1478 49.035C18.7798 49.599 19.6118 49.9431 20.5248 49.9431H34.7888C35.7018 49.9431 36.5348 49.599 37.1668 49.035C37.7978 49.599 38.6308 49.9431 39.5438 49.9431H51.4298C53.3998 49.9431 54.9958 48.3471 54.9958 46.3791V42.814C54.9958 40.294 53.9938 37.8761 52.2108 36.0951C51.4738 35.3591 50.6278 34.755 49.7118 34.302C51.4738 33.003 52.6188 30.915 52.6188 28.56C52.6188 25.46 50.6328 22.817 47.8638 21.84V21.4331C47.8638 17.7011 45.7128 14.473 42.5818 12.918C44.3438 11.619 45.4868 9.53105 45.4868 7.17705C45.4868 3.24505 42.2908 0.0500488 38.3548 0.0500488C34.4188 0.0500488 31.2228 3.24505 31.2228 7.17705C31.2228 9.53105 32.3668 11.619 34.1278 12.918H34.1288ZM9.82785 35.687C7.93685 35.687 6.12285 36.438 4.78485 37.774C3.44785 39.111 2.69585 40.925 2.69585 42.814V46.3791C2.69585 47.0341 3.22885 47.5661 3.88485 47.5661H15.7708C16.4268 47.5661 16.9598 47.0341 16.9598 46.3791V42.814C16.9598 40.925 16.2078 39.111 14.8708 37.774C13.5328 36.438 11.7188 35.687 9.82785 35.687ZM45.4878 35.687C43.5968 35.687 41.7828 36.438 40.4448 37.774C39.1068 39.111 38.3558 40.925 38.3558 42.814V46.3791C38.3558 47.0341 38.8888 47.5661 39.5448 47.5661H51.4308C52.0868 47.5661 52.6198 47.0341 52.6198 46.3791V42.814C52.6198 40.925 51.8678 39.111 50.5308 37.774C49.1928 36.438 47.3788 35.687 45.4878 35.687ZM27.6578 30.9361C23.0628 30.9361 19.3368 34.658 19.3368 39.25V46.3791C19.3368 47.0341 19.8698 47.5661 20.5258 47.5661H34.7898C35.4458 47.5661 35.9788 47.0341 35.9788 46.3791V39.25C35.9788 34.658 32.2528 30.9361 27.6578 30.9361ZM45.4878 21.432C45.4878 17.495 42.2948 14.305 38.3558 14.305C36.3518 14.305 34.5418 15.1301 33.2458 16.4611C34.9238 17.983 35.9788 20.18 35.9788 22.621C35.9788 25.528 34.4808 28.09 32.2168 29.577C35.1438 30.956 37.3438 33.624 38.0848 36.85C38.2968 36.588 38.5238 36.3361 38.7638 36.0941C39.5008 35.3581 40.3468 34.754 41.2628 34.301C39.5008 33.002 38.3558 30.915 38.3558 28.559C38.3558 24.626 41.5518 21.432 45.4878 21.432ZM22.0708 16.4611C20.7748 15.131 18.9648 14.305 16.9608 14.305C13.0208 14.305 9.82885 17.495 9.82885 21.432C13.7638 21.432 16.9608 24.626 16.9608 28.559C16.9608 30.915 15.8158 33.002 14.0528 34.301C14.9688 34.754 15.8158 35.3581 16.5528 36.0941C16.7928 36.3361 17.0198 36.588 17.2318 36.85C17.9718 33.624 20.1718 30.956 23.0998 29.577C20.8358 28.09 19.3378 25.528 19.3378 22.621C19.3378 20.18 20.3918 17.983 22.0708 16.4611ZM45.4878 33.3111C42.8628 33.3111 40.7328 31.182 40.7328 28.559C40.7328 25.937 42.8628 23.807 45.4878 23.807C48.1128 23.807 50.2428 25.937 50.2428 28.559C50.2428 31.182 48.1128 33.3111 45.4878 33.3111ZM9.88985 33.3111H9.82885C7.20385 33.3111 5.07385 31.182 5.07385 28.559C5.07385 25.937 7.20385 23.807 9.82885 23.807C12.4528 23.807 14.5828 25.937 14.5828 28.559C14.5828 31.162 12.4858 33.2781 9.88985 33.3111ZM27.6578 16.68C30.9388 16.68 33.6008 19.3411 33.6008 22.6201C33.6008 25.8991 30.9388 28.5581 27.6578 28.5581C24.3768 28.5581 21.7148 25.8991 21.7148 22.6201C21.7148 19.3411 24.3768 16.68 27.6578 16.68ZM16.9598 2.42405C19.5848 2.42405 21.7148 4.55405 21.7148 7.17605C21.7148 9.80005 19.5848 11.929 16.9598 11.929C14.3348 11.929 12.2048 9.80005 12.2048 7.17605C12.2048 4.55405 14.3348 2.42405 16.9598 2.42405ZM38.3558 2.42405C40.9808 2.42405 43.1108 4.55405 43.1108 7.17605C43.1108 9.80005 40.9808 11.929 38.3558 11.929C35.7308 11.929 33.6008 9.80005 33.6008 7.17605C33.6008 4.55405 35.7308 2.42405 38.3558 2.42405Z" />
    </symbol>
        <symbol id="tourism" viewBox="0 0 50 60">
        <path fill-rule="evenodd" clip-rule="evenodd" d="M44.373 10.4289H40.962C41.783 11.2919 42.291 12.4549 42.291 13.7359V15.1709C42.291 16.4719 42.142 17.7399 41.868 18.9599C42.892 19.7049 43.51 20.8959 43.51 22.1879V35.6429H44.292C47.163 35.6429 49.5 37.9809 49.5 40.8549V51.8749C49.5 53.1459 48.466 54.1819 47.195 54.1819H43.51V54.6029C43.51 57.4809 41.17 59.8229 38.293 59.8229H11.704C8.828 59.8229 6.488 57.4819 6.488 54.6029L6.489 54.1819H2.805C1.534 54.1819 0.5 53.1459 0.5 51.8739V40.8549C0.5 37.9809 2.836 35.6429 5.708 35.6429H6.489V22.1879C6.489 20.8949 7.107 19.7039 8.132 18.9599C7.859 17.7389 7.709 16.4719 7.709 15.1709V12.9479C7.709 11.9899 8.061 11.1209 8.624 10.4289H5.626C2.8 10.4289 0.5 8.12892 0.5 5.30092C0.5 2.47192 2.8 0.169922 5.626 0.169922H44.373C47.2 0.169922 49.5 2.47192 49.5 5.30092C49.5 8.12892 47.2 10.4289 44.373 10.4289ZM43.51 52.6889H47.195C47.644 52.6889 48.009 52.3239 48.009 51.8739V40.8539C48.009 38.8029 46.342 37.1339 44.291 37.1339H43.51V52.6889ZM6.489 37.1349H5.708C3.658 37.1349 1.99 38.8039 1.99 40.8559V51.8749C1.99 52.3239 2.355 52.6899 2.805 52.6899H6.489V37.1349ZM7.978 54.6029C7.978 56.6589 9.65 58.3319 11.705 58.3319H38.294C40.349 58.3319 42.02 56.6589 42.02 54.6029V54.1819H7.978V54.6029ZM8.576 20.5689C8.198 21.0139 7.979 21.5809 7.979 22.1869L7.98 52.6899L42.021 52.6889V22.1869C42.021 21.5819 41.802 21.0139 41.425 20.5699C39.152 27.4729 32.651 32.4709 25 32.4709C17.35 32.4709 10.848 27.4719 8.576 20.5689ZM22.731 23.4599L14.682 20.6239V26.2849L22.731 23.4599ZM15.324 27.6409C18 29.7249 21.353 30.9789 24.999 30.9789C28.635 30.9789 31.977 29.7319 34.65 27.6599L24.978 24.2509L15.324 27.6409ZM16.214 19.5839L24.979 22.6709L33.781 19.5819L24.1 16.3279L16.214 19.5839ZM22.853 15.5329L14.682 12.5039V18.5599L22.853 15.5329ZM27.226 23.4629L35.233 26.2849V20.6529L27.226 23.4629ZM13.192 1.66192H5.626C3.621 1.66192 1.99 3.29292 1.99 5.29992C1.99 7.30592 3.621 8.93792 5.626 8.93792H13.192V1.66192ZM13.193 10.4289H11.716C10.329 10.4289 9.2 11.5589 9.2 12.9469V15.1689C9.2 19.1859 10.717 22.8469 13.193 25.6379V10.4289ZM35.233 1.66092H14.682V8.93792H35.233V1.66092ZM35.233 10.4289H14.682V10.9149L24.1 14.7369L35.233 10.9449V10.4289ZM35.233 12.5349L27.146 15.5329L35.233 18.5289V12.5349ZM36.723 25.7299C39.248 22.9279 40.8 19.2309 40.8 15.1699V13.7359C40.8 11.9129 39.318 10.4289 37.495 10.4289H36.723V25.7299ZM44.373 1.66192H36.724V8.93792H44.373C46.378 8.93792 48.01 7.30592 48.01 5.29992C48.01 3.29292 46.378 1.66192 44.373 1.66192ZM13.662 35.3979H36.252C36.664 35.3979 36.998 35.7309 36.998 36.1439V45.4899C36.998 47.6569 35.503 49.4219 33.665 49.4219H16.25C14.412 49.4219 12.917 47.6579 12.917 45.4899V36.1439C12.917 35.7309 13.251 35.3979 13.662 35.3979ZM14.456 36.8899C14.822 39.6549 17.194 41.7969 20.058 41.7969H29.856C32.719 41.7969 35.092 39.6549 35.458 36.8899H14.456ZM14.408 45.4899C14.408 46.8359 15.234 47.9309 16.25 47.9309H33.665C34.68 47.9309 35.506 46.8359 35.506 45.4899V40.4959C34.2 42.1909 32.156 43.2889 29.856 43.2889H20.058C17.759 43.2889 15.715 42.1909 14.408 40.4949V45.4899Z" />
    </symbol>
</svg>
