<svg xmlns='http://www.w3.org/2000/svg' xmlns:xlink="http://www.w3.org/1999/xlink" version="1" style='display: none;'>
    <symbol id="insta" viewBox="0 0 33 33">
        <path fill-rule="evenodd" clip-rule="evenodd" d="M32.547 23.333C32.475 24.895 32.246 26.099 31.803 27.239C31.379 28.331 30.824 29.183 30.004 30.003C29.183 30.825 28.33 31.38 27.239 31.804C26.099 32.246 24.895 32.476 23.333 32.546C21.527 32.629 20.926 32.648 16.324 32.648C11.722 32.648 11.121 32.629 9.315 32.546C7.754 32.476 6.549 32.246 5.408 31.804C4.318 31.38 3.465 30.825 2.644 30.003C1.824 29.183 1.269 28.331 0.845 27.239C0.402 26.1 0.173 24.895 0.102 23.333C0.019 21.526 0 20.924 0 16.324C0 11.726 0.019 11.124 0.102 9.315C0.173 7.753 0.402 6.548 0.845 5.409C1.269 4.317 1.824 3.465 2.644 2.645C3.466 1.824 4.318 1.269 5.409 0.846C6.549 0.402 7.754 0.173 9.315 0.102C11.131 0.019 11.734 0 16.324 0C20.914 0 21.518 0.019 23.333 0.102C24.895 0.173 26.099 0.402 27.24 0.846C28.33 1.269 29.183 1.825 30.004 2.645C30.824 3.465 31.379 4.317 31.803 5.409C32.246 6.549 32.475 7.754 32.547 9.315C32.629 11.122 32.648 11.723 32.648 16.324C32.648 20.925 32.629 21.526 32.547 23.333ZM30.989 9.387C30.907 7.61 30.604 6.629 30.35 5.973C30.003 5.082 29.57 4.416 28.901 3.748C28.233 3.078 27.567 2.646 26.675 2.299C26.019 2.044 25.038 1.741 23.262 1.66C21.448 1.577 20.904 1.56 16.324 1.56C11.744 1.56 11.2 1.577 9.386 1.66C7.61 1.741 6.63 2.044 5.973 2.299C5.082 2.646 4.416 3.078 3.747 3.748C3.078 4.417 2.645 5.083 2.299 5.973C2.044 6.629 1.741 7.612 1.66 9.387C1.577 11.201 1.559 11.745 1.559 16.324C1.559 20.903 1.577 21.446 1.66 23.262C1.741 25.037 2.044 26.018 2.299 26.674C2.645 27.565 3.078 28.231 3.747 28.901C4.417 29.57 5.083 30.003 5.974 30.35C6.629 30.604 7.61 30.907 9.386 30.988C11.203 31.071 11.747 31.089 16.324 31.089C20.901 31.089 21.445 31.071 23.262 30.988C25.038 30.907 26.019 30.604 26.675 30.35C27.567 30.003 28.232 29.569 28.901 28.902C29.57 28.232 30.003 27.566 30.35 26.674C30.604 26.02 30.907 25.04 30.989 23.262C31.072 21.439 31.089 20.893 31.089 16.324C31.089 11.755 31.072 11.21 30.989 9.387ZM25.444 9.887C23.964 9.887 22.761 8.684 22.761 7.205C22.761 5.725 23.964 4.522 25.444 4.522C26.923 4.522 28.126 5.725 28.126 7.205C28.126 8.684 26.923 9.887 25.444 9.887ZM25.444 5.788C24.662 5.788 24.026 6.423 24.026 7.205C24.026 7.987 24.662 8.623 25.444 8.623C26.225 8.623 26.861 7.987 26.861 7.205C26.861 6.423 26.225 5.788 25.444 5.788ZM16.324 24.337C11.906 24.337 8.311 20.743 8.311 16.324C8.311 11.906 11.906 8.311 16.324 8.311C20.743 8.311 24.337 11.906 24.337 16.324C24.337 20.743 20.743 24.337 16.324 24.337ZM16.324 9.87C12.766 9.87 9.87 12.766 9.87 16.324C9.87 19.882 12.766 22.778 16.324 22.778C19.883 22.778 22.778 19.882 22.778 16.324C22.778 12.766 19.883 9.87 16.324 9.87Z"/>
    </symbol>
    <symbol id="yt" viewBox="0 0 35 34">
        <path fill-rule="evenodd" clip-rule="evenodd" d="M17.5 34C7.85042 34 0 26.3739 0 17C0 7.62612 7.85042 0 17.5 0C27.1496 0 35 7.62612 35 17C35 26.3739 27.1496 34 17.5 34ZM17.5 1.41723C8.65455 1.41723 1.45792 8.40728 1.45792 17C1.45792 25.5927 8.65455 32.5828 17.5 32.5828C26.3454 32.5828 33.5421 25.5927 33.5421 17C33.5421 8.40728 26.3454 1.41723 17.5 1.41723ZM25.0141 23.9987C22.5206 24.1765 20.0103 24.2649 17.5 24.2649C14.9897 24.2649 12.4784 24.1765 9.98587 23.9987C8.89391 23.9209 8.00571 23.0859 7.87515 22.0117C7.46863 18.6863 7.46863 15.3137 7.87515 11.9893C8.00571 10.9141 8.89391 10.0791 9.98587 10.0013C14.9719 9.64675 20.0281 9.64675 25.0141 10.0013C26.1061 10.0791 26.9933 10.9141 27.1249 11.9893C27.5314 15.3137 27.5314 18.6863 27.1249 22.0117C26.9943 23.0859 26.1061 23.9209 25.0141 23.9987ZM25.8183 12.1392C25.7609 11.6722 25.3831 11.309 24.9182 11.2763C22.4563 11.1015 19.9787 11.014 17.5 11.014C15.0213 11.014 12.5427 11.1015 10.0818 11.2763C9.61694 11.309 9.23812 11.6722 9.18174 12.1392C8.78709 15.3647 8.78709 18.6353 9.18174 21.8608C9.23812 22.3278 9.61694 22.691 10.0818 22.7237C15.0045 23.0744 19.9955 23.0744 24.9172 22.7237C25.3831 22.691 25.7609 22.3278 25.8183 21.8608C26.2119 18.6353 26.2119 15.3647 25.8183 12.1392ZM20.767 17.4967L16.2795 19.993C16.14 20.0699 15.9847 20.1093 15.8294 20.1093C15.6731 20.1093 15.5159 20.0689 15.3764 19.9911C15.0985 19.8345 14.9254 19.5433 14.9254 19.2301V14.2386C14.9254 13.9263 15.0975 13.6352 15.3754 13.4785C15.6534 13.3219 15.9995 13.321 16.2785 13.4757L20.767 15.9719C21.0479 16.1285 21.222 16.4206 21.222 16.7348C21.222 17.049 21.0479 17.3411 20.767 17.4967ZM16.2409 14.9275V18.5412L19.4901 16.7348L16.2409 14.9275Z"/>
    </symbol>
    <symbol id="menu" viewBox="0 0 24 14">
        <path fill-rule="evenodd" clip-rule="evenodd" d="M0 12H19.1V13.7634H0V12Z"/>
        <path fill-rule="evenodd" clip-rule="evenodd" d="M3 6H23V8H3V6Z"/>
        <path fill-rule="evenodd" clip-rule="evenodd" d="M0 0H19V2H0V0Z"/>
    </symbol>
    <symbol id="logo" viewBox="0 0 197 69">
        <path d="M29.2686 49.4137L20.9088 67.7896H57.3465L59.5133 63.0257L65.7063 49.4137H29.2686Z"/>
        <path d="M33.6024 39.8901L33.6009 39.893L48.9881 39.8901L42.7952 26.2781L40.6283 21.5142H31.5071L31.8105 20.8459L36.0684 11.4898L36.067 11.4869L30.8401 0L25.6147 11.4869L21.3568 20.8445L21.0519 21.5142H4.33376L12.6921 39.8901L0 67.7896H10.4551L23.1473 39.8901H33.6024Z"/>
        <path fill-rule="evenodd" clip-rule="evenodd" d="M184.256 38.263V7.61166H189.074V33.8841H197V38.263H184.256V38.263ZM167.265 7.61166H180.402V11.9906H172.081V20.5296H178.693V24.9086H172.081V33.8855H180.402V38.2645H167.265V7.61166ZM158.418 34.4965V29.6797C158.418 26.8333 157.455 25.783 155.265 25.783H153.601V38.2616H148.783V7.61166H156.053C161.045 7.61166 163.192 9.9328 163.192 14.6609V17.0694C163.192 20.222 162.184 22.2369 160.039 23.2429V23.3302C162.447 24.3376 163.236 26.6144 163.236 29.8099V34.5395C163.236 36.0278 163.28 37.1225 163.761 38.2616H158.856C158.594 37.4731 158.418 36.9923 158.418 34.4965ZM158.374 15.1432C158.374 12.9537 157.63 11.9906 155.922 11.9906H153.601V21.4054H155.484C157.281 21.4054 158.374 20.6169 158.374 18.1656V15.1446V15.1432ZM139.98 32.702H134.068L133.236 38.263H128.813L133.718 7.61166H140.769L145.673 38.263H140.813L139.981 32.702H139.98ZM137.046 13.041H136.959L134.682 28.542H139.323L137.046 13.041ZM120.361 26.7461H118.084V38.2616H113.266V7.61166H120.361C125.178 7.61166 127.543 10.282 127.543 15.1876V19.1716C127.543 24.0757 125.178 26.7475 120.361 26.7475V26.7461ZM122.725 14.8799C122.725 12.6904 121.893 11.9906 120.361 11.9906H118.084V22.3685H120.361C121.893 22.3685 122.725 21.6673 122.725 19.4778V14.8799V14.8799ZM102.974 26.7461H100.697V38.2616H95.8795V7.61166H102.974C107.792 7.61166 110.156 10.282 110.156 15.1876V19.1716C110.156 24.0757 107.792 26.7475 102.974 26.7475V26.7461ZM105.338 14.8799C105.338 12.6904 104.507 11.9906 102.974 11.9906H100.697V22.3685H102.974C104.507 22.3685 105.338 21.6673 105.338 19.4778V14.8799V14.8799ZM87.076 32.7006H81.1636L80.332 38.2616H75.9095L80.8144 7.61023H87.8646L92.7694 38.2616H87.909L87.0774 32.7006H87.076ZM84.142 13.0396H84.0547L81.7776 28.5406H86.4191L84.142 13.0396Z"/>
        <path fill-rule="evenodd" clip-rule="evenodd" d="M123.528 53.631C123.528 52.3173 123.003 51.8178 122.082 51.8178C121.162 51.8178 120.637 52.3173 120.637 53.631C120.637 54.9447 121.215 55.9693 123.107 57.6236C125.524 59.7515 126.286 61.2756 126.286 63.3763C126.286 66.3185 124.815 68 121.976 68C119.138 68 117.668 66.3185 117.668 63.3763V62.2472H120.401V63.5609C120.401 64.8746 120.979 65.3469 121.898 65.3469C122.817 65.3469 123.395 64.8746 123.395 63.5609C123.395 62.2472 122.817 61.2226 120.925 59.5683C118.507 57.4404 117.746 55.9163 117.746 53.8156C117.746 50.8734 119.191 49.1919 122.002 49.1919C124.813 49.1919 126.259 50.8734 126.259 53.8156V54.3937H123.527V53.6324L123.528 53.631ZM113.306 67.7911H110.416V52.0296H107.395V49.4023H116.327V52.0296H113.306V67.7911V67.7911ZM103.952 64.4553H100.405L99.9055 67.7911H97.252L100.195 49.4023H104.424L107.366 67.7911H104.45L103.95 64.4553H103.952ZM102.191 52.6593H102.138L100.771 61.9596H103.557L102.19 52.6593H102.191ZM91.2595 68.0014C88.4213 68.0014 86.8713 66.32 86.8713 63.3778V53.8156C86.8713 50.8734 88.4213 49.1919 91.2595 49.1919C94.0976 49.1919 95.6476 50.8734 95.6476 53.8156V63.3778C95.6476 66.32 94.0976 68.0014 91.2595 68.0014ZM92.7565 53.6324C92.7565 52.3187 92.1783 51.8193 91.2595 51.8193C90.3406 51.8193 89.7624 52.3187 89.7624 53.6324V63.5624C89.7624 64.8761 90.3406 65.3755 91.2595 65.3755C92.1783 65.3755 92.7565 64.8761 92.7565 63.5624V53.6324ZM80.4594 67.7925H75.9138V49.4037H80.2748C83.2703 49.4037 84.557 50.7961 84.557 53.6324V54.2892C84.557 56.1811 83.9788 57.3631 82.6921 57.967V58.02C84.2421 58.6239 84.8461 59.9905 84.8461 61.9338V63.4307C84.8461 66.2685 83.3491 67.7911 80.458 67.7911L80.4594 67.7925ZM81.6674 53.9215C81.6674 52.6078 81.2208 52.0296 80.1961 52.0296H78.8035V56.8894H79.9327C81.0104 56.8894 81.6659 56.4172 81.6659 54.9461V53.9215H81.6674ZM81.9565 61.7492C81.9565 60.042 81.4054 59.5168 80.0916 59.5168H78.8049V65.1651H80.4608C81.4326 65.1651 81.9579 64.7186 81.9579 63.352V61.7492H81.9565Z"/>
    </symbol>
    <symbol id="logo-vertical" viewBox="0 0 47 61">
        <path fill-rule="evenodd" clip-rule="evenodd" d="M32.4807 55.5951C32.4807 55.1009 32.2768 54.9131 31.9196 54.9131C31.5624 54.9131 31.3586 55.1009 31.3586 55.5951C31.3586 56.0892 31.583 56.4746 32.3174 57.0969C33.2556 57.8973 33.5512 58.4706 33.5512 59.2608C33.5512 60.3675 32.9801 61 31.8785 61C30.7769 61 30.2064 60.3675 30.2064 59.2608V58.8361H31.2669V59.3303C31.2669 59.8244 31.4913 60.002 31.848 60.002C32.2046 60.002 32.429 59.8244 32.429 59.3303C32.429 58.8361 32.2046 58.4507 31.4702 57.8284C30.532 57.028 30.2364 56.4547 30.2364 55.6645C30.2364 54.5578 30.7975 53.9253 31.8885 53.9253C32.9795 53.9253 33.5406 54.5578 33.5406 55.6645V55.882H32.4801V55.5956L32.4807 55.5951ZM28.5132 60.9214H27.3917V54.9927H26.219V54.0044H29.6859V54.9927H28.5132V60.9214ZM24.8824 59.6667H23.5059L23.312 60.9214H22.2821L23.4242 54.0044H25.0658L26.2079 60.9214H25.0757L24.8819 59.6667H24.8824ZM24.1992 55.2296H24.1786L23.6481 58.7279H24.7291L24.1986 55.2296H24.1992ZM19.9562 61.0006C18.8546 61.0006 18.253 60.3681 18.253 59.2614V55.6645C18.253 54.5578 18.8546 53.9253 19.9562 53.9253C21.0577 53.9253 21.6594 54.5578 21.6594 55.6645V59.2614C21.6594 60.3681 21.0577 61.0006 19.9562 61.0006ZM20.5372 55.5956C20.5372 55.1015 20.3128 54.9136 19.9562 54.9136C19.5995 54.9136 19.3751 55.1015 19.3751 55.5956V59.3308C19.3751 59.8249 19.5995 60.0128 19.9562 60.0128C20.3128 60.0128 20.5372 59.8249 20.5372 59.3308V55.5956ZM15.7643 60.922H14V54.005H15.6926C16.8553 54.005 17.3547 54.5287 17.3547 55.5956V55.8427C17.3547 56.5543 17.1303 56.9989 16.6309 57.2261V57.246C17.2325 57.4732 17.4669 57.9872 17.4669 58.7182V59.2813C17.4669 60.3487 16.8859 60.9214 15.7637 60.9214L15.7643 60.922ZM16.2331 55.7043C16.2331 55.2102 16.0598 54.9927 15.6621 54.9927H15.1216V56.8207H15.5599C15.9782 56.8207 16.2326 56.6431 16.2326 56.0898V55.7043H16.2331ZM16.3454 58.6488C16.3454 58.0066 16.1315 57.809 15.6215 57.809H15.1221V59.9337H15.7649C16.142 59.9337 16.3459 59.7657 16.3459 59.2517V58.6488H16.3454Z"/>
        <path fill-rule="evenodd" clip-rule="evenodd" d="M42.0537 49.3422V37.8126H43.9236V47.695H47V49.3422H42.0537ZM35.4587 37.8126H40.5578V39.4597H37.328V42.6717H39.8945V44.3189H37.328V47.6955H40.5578V49.3427H35.4587V37.8131V37.8126ZM32.0251 47.9254V46.1135C32.0251 45.0428 31.6513 44.6477 30.8013 44.6477H30.1553V49.3416H28.2854V37.812H31.1069C33.0445 37.812 33.8778 38.6851 33.8778 40.4636V41.3696C33.8778 42.5554 33.4867 43.3133 32.654 43.6917V43.7246C33.5889 44.1035 33.895 44.96 33.895 46.162V47.941C33.895 48.5008 33.9122 48.9126 34.0988 49.3411H32.1951C32.0935 49.0445 32.0251 48.8636 32.0251 47.9248V47.9254ZM32.0079 40.6456C32.0079 39.822 31.719 39.4597 31.0563 39.4597H30.1553V43.0011H30.8863C31.5835 43.0011 32.0079 42.7045 32.0079 41.7824V40.6461V40.6456ZM24.8685 47.2504H22.5737L22.2509 49.3422H20.5344L22.4381 37.8126H25.1746L27.0783 49.3422H25.1918L24.8691 47.2504H24.8685ZM23.7297 39.8548H23.6958L22.812 45.6856H24.6135L23.7297 39.8548ZM17.2536 45.01H16.3698V49.3416H14.4999V37.812H17.2536C19.1234 37.812 20.0411 38.8165 20.0411 40.6617V42.1603C20.0411 44.005 19.1234 45.01 17.2536 45.01ZM18.1713 40.5465C18.1713 39.7229 17.8485 39.4597 17.2536 39.4597H16.3698V43.3634H17.2536C17.8485 43.3634 18.1713 43.0996 18.1713 42.276V40.5465ZM10.5052 45.01H9.62143V49.3416H7.75158V37.812H10.5052C12.3751 37.812 13.2928 38.8165 13.2928 40.6617V42.1603C13.2928 44.005 12.3751 45.01 10.5052 45.01ZM11.4229 40.5465C11.4229 39.7229 11.1002 39.4597 10.5052 39.4597H9.62143V43.3634H10.5052C11.1002 43.3634 11.4229 43.0996 11.4229 42.276V40.5465ZM4.33464 47.2498H2.03983L1.71708 49.3416H0L1.90373 37.812H4.64017L6.5439 49.3416H4.65739L4.33464 47.2498ZM3.19585 39.8543H3.16196L2.27814 45.685H4.07966L3.19585 39.8543Z"/>
        <path d="M21.6904 24.1729L17.4707 33.1623H35.8636L36.9574 30.832L40.0833 24.1729H21.6904Z"/>
        <path d="M23.8779 19.5141L23.8768 19.5157L31.644 19.5141L28.5181 12.8549L27.4243 10.5246H22.8203L22.9736 10.1979L25.1223 5.62081L25.1217 5.61974L22.4836 0L19.8455 5.61974L17.6968 10.1968L17.5429 10.5246H9.10361L13.3233 19.5141L6.91602 33.1624H12.1934L18.6006 19.5141H23.8779Z"/>
    </symbol>
        <symbol id="ship" viewBox="0 0 61 69" >
        <path fill-rule="evenodd" clip-rule="evenodd" d="M54.1552 68.8309C52.0802 68.8309 50.1302 68.0229 48.6642 66.5559L48.4542 66.3459C47.3782 65.3169 45.9722 64.7509 44.4902 64.7509C43.0072 64.7509 41.6012 65.3169 40.5302 66.3399C39.0562 67.8109 37.1042 68.6169 35.0282 68.6169C32.9522 68.6169 30.1002 67.8109 29.5302 66.3449C28.4532 65.3199 27.0472 64.7569 25.5662 64.7569C24.0852 64.7569 22.6792 65.3199 21.6072 66.3399L22.0532 66.7979L21.6022 66.3449L21.4062 66.5409C19.9392 68.0089 17.9892 68.8179 15.9152 68.8179C13.8412 68.8179 11.8912 68.0089 10.4252 66.5409L10.3322 66.4469H10.3312L10.2712 66.3879C9.2102 65.3309 7.8032 64.7489 6.3072 64.7489C4.8102 64.7489 3.4032 65.3309 2.3422 66.3869C2.1402 66.5849 1.8692 66.6959 1.5832 66.6959C1.2872 66.6959 1.0112 66.5799 0.8052 66.3679C0.6012 66.1609 0.4912 65.8859 0.4942 65.5959C0.4972 65.3049 0.6132 65.0319 0.8212 64.8289C1.9022 63.7489 3.2612 63.0189 4.7542 62.7119C5.2672 62.6069 5.7922 62.5539 6.3162 62.5539C7.3082 62.5539 8.2782 62.7409 9.2002 63.1079L9.8362 63.3619L2.4802 40.9789C2.3152 40.4689 2.5502 39.9169 3.0302 39.6809L10.7002 36.1979V19.0949C10.7002 18.4999 11.1842 18.0169 11.7792 18.0169H16.1372V9.86989C16.1372 9.27489 16.6202 8.79189 17.2152 8.79189H25.0122V5.55089C25.0122 3.63189 26.0442 1.84389 27.7072 0.883889C28.5252 0.410889 29.4572 0.160889 30.4022 0.160889C31.3472 0.160889 32.2782 0.410889 33.0972 0.883889C34.7592 1.84389 35.7912 3.63189 35.7912 5.55089V8.79189H43.5882C43.8722 8.79189 44.1502 8.90689 44.3512 9.10889C44.5512 9.30789 44.6662 9.58689 44.6662 9.86989V18.0169H49.0392C49.3232 18.0169 49.6012 18.1319 49.8012 18.3319C50.0022 18.5329 50.1172 18.8099 50.1172 19.0949V36.3089L57.7672 39.8319C58.2712 40.0639 58.5162 40.6339 58.3382 41.1579L50.2752 65.0089L50.4372 65.1499C51.4792 66.0559 52.8152 66.5559 54.1962 66.5559C54.2402 66.5559 54.2832 66.5549 54.3272 66.5539C55.7562 66.5209 57.1132 65.9579 58.1492 64.9719L58.4752 64.6449C58.6782 64.4439 58.9482 64.3329 59.2352 64.3329C59.5222 64.3329 59.7922 64.4439 59.9952 64.6459L60.5042 64.2729L59.9982 64.6489C60.2122 64.8559 60.3332 65.1429 60.3292 65.4409C60.3252 65.7379 60.1962 66.0229 59.9772 66.2239L59.6452 66.5559C58.1792 68.0229 56.2292 68.8309 54.1552 68.8309ZM22.1482 37.1199C22.2652 37.1199 22.3792 37.1379 22.4892 37.1749C22.7642 37.2659 22.9942 37.4679 23.1202 37.7289C23.2462 37.9889 23.2612 38.2939 23.1622 38.5659C23.0632 38.8379 22.8552 39.0619 22.5912 39.1819L6.6772 46.8819L12.8962 65.6809L12.9982 65.7409C13.8902 66.2729 14.9102 66.5549 15.9472 66.5549C16.1592 66.5549 16.3732 66.5419 16.5832 66.5189C17.5902 66.4059 18.5572 66.0229 19.3692 65.4249V65.5119L20.1112 64.7709C21.5762 63.3019 23.5262 62.4939 25.6012 62.4939C27.6752 62.4939 29.6252 63.3019 31.0912 64.7709C32.1522 65.8269 33.5592 66.4089 35.0562 66.4089C36.5522 66.4089 37.9602 65.8269 39.0202 64.7719L39.3352 64.4569L39.3162 64.4479C40.4342 63.4399 41.8462 62.7729 43.3382 62.5539C43.7052 62.4999 44.0802 62.4729 44.4512 62.4729C45.7332 62.4729 47.0062 62.7989 48.1312 63.4139L48.4652 63.5969L54.1572 46.7709L38.4032 39.1429C38.1312 39.0209 37.9222 38.7969 37.8232 38.5249C37.7242 38.2529 37.7402 37.9479 37.8662 37.6859C37.9922 37.4259 38.2222 37.2239 38.4962 37.1329C38.6062 37.0959 38.7202 37.0779 38.8362 37.0779C39.0082 37.0779 39.1802 37.1199 39.3332 37.1989L54.8602 44.6989L55.9592 41.3839L38.9282 33.5369C36.6832 32.5049 34.2952 31.8929 31.8292 31.7179L31.4872 31.6939V58.3129C31.4872 58.9069 31.0032 59.3899 30.4092 59.3899C29.8142 59.3899 29.3312 58.9069 29.3312 58.3129V31.6969L28.9912 31.7179C26.5302 31.8759 24.1412 32.4689 21.8922 33.4789L12.2042 37.9529L4.8652 41.2819L5.9342 44.8139L21.6442 37.2439C21.8052 37.1619 21.9772 37.1199 22.1482 37.1199ZM30.4352 29.5249C33.7172 29.5249 36.8932 30.2189 39.8762 31.5859L47.9602 35.3169V20.1729H12.8562L12.8402 35.2859L20.9932 31.5869C23.9772 30.2189 27.1542 29.5249 30.4352 29.5249ZM18.2922 18.0169H42.5092V15.5329H24.1052C23.5102 15.5329 23.0272 15.0489 23.0272 14.4549C23.0272 13.8599 23.5102 13.3759 24.1052 13.3759H42.5092V10.9489H18.2922V18.0169ZM30.4152 2.31889C29.8482 2.31889 29.2892 2.46789 28.7982 2.75189C27.8012 3.32689 27.1822 4.40089 27.1822 5.55089V8.79289H33.6492V5.55089C33.6492 4.40089 33.0292 3.32789 32.0312 2.75189C31.5412 2.46789 30.9822 2.31889 30.4152 2.31889ZM43.5882 60.0049C42.3672 60.0049 41.2192 59.5289 40.3552 58.6659C39.4922 57.8019 39.0162 56.6539 39.0162 55.4329C39.0162 54.2129 39.4922 53.0639 40.3552 52.1989C41.2192 51.3359 42.3672 50.8609 43.5882 50.8609C44.7922 50.8609 45.9712 51.3479 46.8212 52.1989C47.6852 53.0639 48.1602 54.2129 48.1602 55.4329C48.1602 56.6539 47.6852 57.8019 46.8212 58.6659C45.9712 59.5169 44.7922 60.0049 43.5882 60.0049ZM43.2702 57.9049H43.5882C44.2372 57.9049 44.8682 57.6379 45.3202 57.1739C45.7722 56.7089 46.0212 56.0719 46.0042 55.4239C46.0042 54.4519 45.4192 53.5759 44.5132 53.2009C44.2182 53.0789 43.9072 53.0169 43.5882 53.0169C42.9432 53.0169 42.3362 53.2679 41.8802 53.7239C41.1872 54.4179 40.9812 55.4509 41.3562 56.3569C41.6902 57.1639 42.4212 57.7159 43.2692 57.8279L43.2702 57.9049ZM17.2152 60.0049C15.9942 60.0049 14.8462 59.5289 13.9832 58.6659C13.1192 57.8019 12.6432 56.6539 12.6432 55.4329C12.6432 54.2119 13.1192 53.0639 13.9832 52.1989C14.7702 51.4119 15.7952 50.9469 16.8962 50.8719V50.9159H17.2152C18.4282 50.9159 19.5692 51.3859 20.4302 52.2369C21.2922 53.0899 21.7742 54.2249 21.7882 55.4369C21.7882 56.6539 21.3122 57.8019 20.4482 58.6659C19.5852 59.5289 18.4372 60.0049 17.2152 60.0049ZM16.8962 57.9049H17.2152C17.8642 57.9049 18.4952 57.6379 18.9472 57.1739C19.4002 56.7089 19.6492 56.0709 19.6312 55.4239C19.6312 54.4519 19.0462 53.5759 18.1402 53.2009C17.8452 53.0789 17.5342 53.0169 17.2162 53.0169C16.5702 53.0169 15.9632 53.2679 15.5072 53.7239C14.8142 54.4179 14.6082 55.4509 14.9832 56.3569C15.3182 57.1639 16.0482 57.7159 16.8962 57.8279V57.9049ZM17.2152 25.7629C16.6212 25.7629 16.1372 25.2789 16.1372 24.6839C16.1372 24.0889 16.6212 23.6069 17.2152 23.6069H43.5882C44.1832 23.6069 44.6662 24.0889 44.6662 24.6839C44.6662 25.2789 44.1832 25.7629 43.5882 25.7629H17.2152Z" />
    </symbol>
       <symbol id="lifebuoy" viewBox="0 0 46 60" >
        <path fill-rule="evenodd" clip-rule="evenodd" d="M40.516 59.4971H5.48402C2.90202 59.4971 0.874023 57.4691 0.874023 54.8881V19.8561C0.874023 19.3031 1.24302 18.9341 1.79602 18.9341C4.83802 18.9341 7.32802 16.4451 7.32802 13.4031V3.26209C7.32802 1.69409 8.52602 0.496094 10.093 0.496094H13.781C14.15 0.496094 14.426 0.680094 14.611 1.05009L22.1 19.4871L31.389 1.05009C31.574 0.680094 31.85 0.496094 32.219 0.496094H35.906C37.474 0.496094 38.672 1.69409 38.672 3.26209V13.4031C38.672 16.4451 41.161 18.9341 44.204 18.9341C44.757 18.9341 45.125 19.3031 45.125 19.8561V54.8881C45.125 57.4691 43.097 59.4971 40.516 59.4971ZM2.71802 54.8871C2.71802 56.4541 3.91602 57.6531 5.48402 57.6531H22.078V53.9661H20.234C19.681 53.9661 19.312 53.5981 19.312 53.0441V51.2001H2.71802V54.8871ZM24.844 52.1221V48.4351H21.156V52.1221H24.844ZM2.71802 49.3561H19.312V47.5131C19.312 46.9601 19.681 46.5911 20.234 46.5911H22.078V43.8251H20.234C19.681 43.8251 19.312 43.4561 19.312 42.9031V41.0601H2.71802V49.3561ZM24.844 41.9811V38.2941H21.156V41.9811H24.844ZM22.078 21.8651L13.228 2.33909H10.093C9.54002 2.33909 9.17102 2.70809 9.17102 3.26109V13.4021C9.17102 17.1821 6.31302 20.2241 2.71802 20.6851V29.9971V39.2161H19.312V37.3721C19.312 36.8191 19.681 36.4501 20.234 36.4501H22.078V33.6841H20.234C19.681 33.6841 19.312 33.3161 19.312 32.7631V30.9191H10.093C9.54002 30.9191 9.17102 30.5501 9.17102 29.9971C9.17102 29.4441 9.54002 29.0751 10.093 29.0751H19.312V27.2311C19.312 26.6771 19.681 26.3091 20.234 26.3091H22.078V21.8651ZM21.156 28.1521V31.8401H24.844V28.1521H21.156ZM43.282 20.6851C39.686 20.2241 36.828 17.0891 36.828 13.4021V3.26109C36.828 2.70809 36.46 2.33909 35.906 2.33909H32.772L23.922 21.8641V26.3091H25.766C26.319 26.3091 26.687 26.6771 26.687 27.2311V29.0751H43.282V20.6851ZM43.282 30.9191H26.687V32.7631C26.687 33.3161 26.319 33.6841 25.766 33.6841H23.922V36.4501H25.766C26.319 36.4501 26.687 36.8191 26.687 37.3721V39.2161H43.282V30.9191ZM43.282 51.2001H33.141C32.588 51.2001 32.219 50.8321 32.219 50.2791C32.219 49.7261 32.588 49.3561 33.141 49.3561H43.282V41.0601H26.687V42.9031C26.687 43.4561 26.319 43.8251 25.766 43.8251H23.922V46.5911H25.766C26.319 46.5911 26.687 46.9601 26.687 47.5131V49.3561H28.531C29.084 49.3561 29.453 49.7261 29.453 50.2791C29.453 50.8321 29.084 51.2001 28.531 51.2001H26.687V53.0441C26.687 53.5981 26.319 53.9661 25.766 53.9661H23.922V57.6531H40.516C42.083 57.6531 43.282 56.4541 43.282 54.8871V51.2001ZM3.64002 29.0751H5.48402C6.03702 29.0751 6.40602 29.4441 6.40602 29.9971C6.40602 30.5501 6.03702 30.9191 5.48402 30.9191H3.64002C3.08702 30.9191 2.71802 30.5501 2.71802 29.9971C2.71802 29.4441 3.08702 29.0751 3.64002 29.0751Z" />
    </symbol>
      <symbol id="trucking" viewBox="0 0 64 47" >
        <path fill-rule="evenodd" clip-rule="evenodd" d="M63.9572 31.2681L59.6912 46.2231C59.5602 46.6801 59.1422 46.9971 58.6652 46.9971H5.33124C4.85424 46.9971 4.43624 46.6801 4.30524 46.2231L0.0392399 31.2681C-0.0527601 30.9451 0.0112399 30.5991 0.21224 30.3321C0.41424 30.0631 0.72924 29.9061 1.06424 29.9061H6.39724V11.7471C6.39724 11.1571 6.87524 10.6791 7.46424 10.6791H12.7972V1.06507C12.7972 0.47507 13.2752 -0.00292969 13.8642 -0.00292969H39.4652C39.7482 -0.00292969 40.0192 0.10907 40.2192 0.31007C40.4192 0.51007 40.5312 0.78207 40.5312 1.06507V9.61107C40.5312 9.89307 40.4192 10.1651 40.2192 10.3661C40.0192 10.5661 39.7482 10.6791 39.4652 10.6791H36.2652C35.6762 10.6791 35.1982 10.2001 35.1982 9.61107C35.1982 9.02007 35.6762 8.54207 36.2652 8.54207H38.3982V6.40607H19.1982V10.6791H20.2642C20.5472 10.6791 20.8192 10.7921 21.0192 10.9911C21.2192 11.1921 21.3312 11.4631 21.3312 11.7471V29.9061H23.4642V22.4281C23.4642 21.8391 23.9422 21.3601 24.5312 21.3601H27.7312V13.8831C27.7312 13.2931 28.2092 12.8151 28.7982 12.8151H50.1322C50.4152 12.8151 50.6862 12.9281 50.8862 13.1281C51.0862 13.3281 51.1992 13.6001 51.1992 13.8831V21.3601H56.5322C56.8152 21.3601 57.0862 21.4721 57.2862 21.6731C57.4862 21.8741 57.5992 22.1461 57.5992 22.4281V29.9061H62.9322C63.2672 29.9061 63.5822 30.0631 63.7842 30.3321C63.9852 30.5991 64.0492 30.9451 63.9572 31.2681ZM19.1982 4.27007H38.3982V2.13307H19.1982V4.27007ZM6.13524 44.8611H57.8622L59.0802 40.5881H4.91724L6.13524 44.8611ZM17.0642 2.13307H14.9312V10.6791H17.0642V2.13307ZM19.1982 12.8151H8.53124V29.9061H19.1982V12.8151ZM25.5982 23.4971V29.9061H34.1322V23.4971H25.5982ZM49.0652 14.9511H29.8652V21.3601H49.0652V14.9511ZM55.4662 23.4971H36.2652V29.9061H55.4662V23.4971ZM2.47824 32.0421L4.30624 38.4521H59.6892L61.5182 32.0421H2.47824ZM56.5322 36.3151H54.3992C53.8102 36.3151 53.3322 35.8371 53.3322 35.2461C53.3322 34.6571 53.8102 34.1781 54.3992 34.1781H56.5322C57.1212 34.1781 57.5992 34.6571 57.5992 35.2461C57.5992 35.8371 57.1212 36.3151 56.5322 36.3151ZM50.1322 36.3151H47.9982C47.4092 36.3151 46.9322 35.8371 46.9322 35.2461C46.9322 34.6571 47.4092 34.1781 47.9982 34.1781H50.1322C50.7212 34.1781 51.1992 34.6571 51.1992 35.2461C51.1992 35.8371 50.7212 36.3151 50.1322 36.3151ZM12.7972 17.0881H10.6642V14.9511H12.7972V17.0881ZM17.0642 17.0881H14.9312V14.9511H17.0642V17.0881Z" />
    </symbol>
        <symbol id="crowd" viewBox="0 0 55 50" >
        <path fill-rule="evenodd" clip-rule="evenodd" d="M34.1288 12.918C33.0318 13.463 32.0548 14.212 31.2488 15.119C30.1618 14.598 28.9438 14.306 27.6578 14.306C26.3718 14.306 25.1528 14.598 24.0668 15.119C23.2608 14.212 22.2838 13.463 21.1868 12.918C22.9478 11.619 24.0918 9.53105 24.0918 7.17705C24.0918 3.24505 20.8958 0.0500488 16.9598 0.0500488C13.0238 0.0500488 9.82785 3.24505 9.82785 7.17705C9.82785 9.53105 10.9708 11.619 12.7328 12.918C9.60185 14.473 7.45085 17.7011 7.45085 21.4331V21.84C4.68185 22.817 2.69585 25.46 2.69585 28.56C2.69585 30.915 3.84085 33.003 5.60285 34.302C4.68685 34.755 3.84085 35.3591 3.10285 36.0951C1.31985 37.8761 0.318848 40.294 0.318848 42.814V46.3791C0.318848 48.3471 1.91485 49.9431 3.88485 49.9431H15.7708C16.6838 49.9431 17.5168 49.599 18.1478 49.035C18.7798 49.599 19.6118 49.9431 20.5248 49.9431H34.7888C35.7018 49.9431 36.5348 49.599 37.1668 49.035C37.7978 49.599 38.6308 49.9431 39.5438 49.9431H51.4298C53.3998 49.9431 54.9958 48.3471 54.9958 46.3791V42.814C54.9958 40.294 53.9938 37.8761 52.2108 36.0951C51.4738 35.3591 50.6278 34.755 49.7118 34.302C51.4738 33.003 52.6188 30.915 52.6188 28.56C52.6188 25.46 50.6328 22.817 47.8638 21.84V21.4331C47.8638 17.7011 45.7128 14.473 42.5818 12.918C44.3438 11.619 45.4868 9.53105 45.4868 7.17705C45.4868 3.24505 42.2908 0.0500488 38.3548 0.0500488C34.4188 0.0500488 31.2228 3.24505 31.2228 7.17705C31.2228 9.53105 32.3668 11.619 34.1278 12.918H34.1288ZM9.82785 35.687C7.93685 35.687 6.12285 36.438 4.78485 37.774C3.44785 39.111 2.69585 40.925 2.69585 42.814V46.3791C2.69585 47.0341 3.22885 47.5661 3.88485 47.5661H15.7708C16.4268 47.5661 16.9598 47.0341 16.9598 46.3791V42.814C16.9598 40.925 16.2078 39.111 14.8708 37.774C13.5328 36.438 11.7188 35.687 9.82785 35.687ZM45.4878 35.687C43.5968 35.687 41.7828 36.438 40.4448 37.774C39.1068 39.111 38.3558 40.925 38.3558 42.814V46.3791C38.3558 47.0341 38.8888 47.5661 39.5448 47.5661H51.4308C52.0868 47.5661 52.6198 47.0341 52.6198 46.3791V42.814C52.6198 40.925 51.8678 39.111 50.5308 37.774C49.1928 36.438 47.3788 35.687 45.4878 35.687ZM27.6578 30.9361C23.0628 30.9361 19.3368 34.658 19.3368 39.25V46.3791C19.3368 47.0341 19.8698 47.5661 20.5258 47.5661H34.7898C35.4458 47.5661 35.9788 47.0341 35.9788 46.3791V39.25C35.9788 34.658 32.2528 30.9361 27.6578 30.9361ZM45.4878 21.432C45.4878 17.495 42.2948 14.305 38.3558 14.305C36.3518 14.305 34.5418 15.1301 33.2458 16.4611C34.9238 17.983 35.9788 20.18 35.9788 22.621C35.9788 25.528 34.4808 28.09 32.2168 29.577C35.1438 30.956 37.3438 33.624 38.0848 36.85C38.2968 36.588 38.5238 36.3361 38.7638 36.0941C39.5008 35.3581 40.3468 34.754 41.2628 34.301C39.5008 33.002 38.3558 30.915 38.3558 28.559C38.3558 24.626 41.5518 21.432 45.4878 21.432ZM22.0708 16.4611C20.7748 15.131 18.9648 14.305 16.9608 14.305C13.0208 14.305 9.82885 17.495 9.82885 21.432C13.7638 21.432 16.9608 24.626 16.9608 28.559C16.9608 30.915 15.8158 33.002 14.0528 34.301C14.9688 34.754 15.8158 35.3581 16.5528 36.0941C16.7928 36.3361 17.0198 36.588 17.2318 36.85C17.9718 33.624 20.1718 30.956 23.0998 29.577C20.8358 28.09 19.3378 25.528 19.3378 22.621C19.3378 20.18 20.3918 17.983 22.0708 16.4611ZM45.4878 33.3111C42.8628 33.3111 40.7328 31.182 40.7328 28.559C40.7328 25.937 42.8628 23.807 45.4878 23.807C48.1128 23.807 50.2428 25.937 50.2428 28.559C50.2428 31.182 48.1128 33.3111 45.4878 33.3111ZM9.88985 33.3111H9.82885C7.20385 33.3111 5.07385 31.182 5.07385 28.559C5.07385 25.937 7.20385 23.807 9.82885 23.807C12.4528 23.807 14.5828 25.937 14.5828 28.559C14.5828 31.162 12.4858 33.2781 9.88985 33.3111ZM27.6578 16.68C30.9388 16.68 33.6008 19.3411 33.6008 22.6201C33.6008 25.8991 30.9388 28.5581 27.6578 28.5581C24.3768 28.5581 21.7148 25.8991 21.7148 22.6201C21.7148 19.3411 24.3768 16.68 27.6578 16.68ZM16.9598 2.42405C19.5848 2.42405 21.7148 4.55405 21.7148 7.17605C21.7148 9.80005 19.5848 11.929 16.9598 11.929C14.3348 11.929 12.2048 9.80005 12.2048 7.17605C12.2048 4.55405 14.3348 2.42405 16.9598 2.42405ZM38.3558 2.42405C40.9808 2.42405 43.1108 4.55405 43.1108 7.17605C43.1108 9.80005 40.9808 11.929 38.3558 11.929C35.7308 11.929 33.6008 9.80005 33.6008 7.17605C33.6008 4.55405 35.7308 2.42405 38.3558 2.42405Z" />
    </symbol>
        <symbol id="tourism" viewBox="0 0 50 60">
        <path fill-rule="evenodd" clip-rule="evenodd" d="M44.373 10.4289H40.962C41.783 11.2919 42.291 12.4549 42.291 13.7359V15.1709C42.291 16.4719 42.142 17.7399 41.868 18.9599C42.892 19.7049 43.51 20.8959 43.51 22.1879V35.6429H44.292C47.163 35.6429 49.5 37.9809 49.5 40.8549V51.8749C49.5 53.1459 48.466 54.1819 47.195 54.1819H43.51V54.6029C43.51 57.4809 41.17 59.8229 38.293 59.8229H11.704C8.828 59.8229 6.488 57.4819 6.488 54.6029L6.489 54.1819H2.805C1.534 54.1819 0.5 53.1459 0.5 51.8739V40.8549C0.5 37.9809 2.836 35.6429 5.708 35.6429H6.489V22.1879C6.489 20.8949 7.107 19.7039 8.132 18.9599C7.859 17.7389 7.709 16.4719 7.709 15.1709V12.9479C7.709 11.9899 8.061 11.1209 8.624 10.4289H5.626C2.8 10.4289 0.5 8.12892 0.5 5.30092C0.5 2.47192 2.8 0.169922 5.626 0.169922H44.373C47.2 0.169922 49.5 2.47192 49.5 5.30092C49.5 8.12892 47.2 10.4289 44.373 10.4289ZM43.51 52.6889H47.195C47.644 52.6889 48.009 52.3239 48.009 51.8739V40.8539C48.009 38.8029 46.342 37.1339 44.291 37.1339H43.51V52.6889ZM6.489 37.1349H5.708C3.658 37.1349 1.99 38.8039 1.99 40.8559V51.8749C1.99 52.3239 2.355 52.6899 2.805 52.6899H6.489V37.1349ZM7.978 54.6029C7.978 56.6589 9.65 58.3319 11.705 58.3319H38.294C40.349 58.3319 42.02 56.6589 42.02 54.6029V54.1819H7.978V54.6029ZM8.576 20.5689C8.198 21.0139 7.979 21.5809 7.979 22.1869L7.98 52.6899L42.021 52.6889V22.1869C42.021 21.5819 41.802 21.0139 41.425 20.5699C39.152 27.4729 32.651 32.4709 25 32.4709C17.35 32.4709 10.848 27.4719 8.576 20.5689ZM22.731 23.4599L14.682 20.6239V26.2849L22.731 23.4599ZM15.324 27.6409C18 29.7249 21.353 30.9789 24.999 30.9789C28.635 30.9789 31.977 29.7319 34.65 27.6599L24.978 24.2509L15.324 27.6409ZM16.214 19.5839L24.979 22.6709L33.781 19.5819L24.1 16.3279L16.214 19.5839ZM22.853 15.5329L14.682 12.5039V18.5599L22.853 15.5329ZM27.226 23.4629L35.233 26.2849V20.6529L27.226 23.4629ZM13.192 1.66192H5.626C3.621 1.66192 1.99 3.29292 1.99 5.29992C1.99 7.30592 3.621 8.93792 5.626 8.93792H13.192V1.66192ZM13.193 10.4289H11.716C10.329 10.4289 9.2 11.5589 9.2 12.9469V15.1689C9.2 19.1859 10.717 22.8469 13.193 25.6379V10.4289ZM35.233 1.66092H14.682V8.93792H35.233V1.66092ZM35.233 10.4289H14.682V10.9149L24.1 14.7369L35.233 10.9449V10.4289ZM35.233 12.5349L27.146 15.5329L35.233 18.5289V12.5349ZM36.723 25.7299C39.248 22.9279 40.8 19.2309 40.8 15.1699V13.7359C40.8 11.9129 39.318 10.4289 37.495 10.4289H36.723V25.7299ZM44.373 1.66192H36.724V8.93792H44.373C46.378 8.93792 48.01 7.30592 48.01 5.29992C48.01 3.29292 46.378 1.66192 44.373 1.66192ZM13.662 35.3979H36.252C36.664 35.3979 36.998 35.7309 36.998 36.1439V45.4899C36.998 47.6569 35.503 49.4219 33.665 49.4219H16.25C14.412 49.4219 12.917 47.6579 12.917 45.4899V36.1439C12.917 35.7309 13.251 35.3979 13.662 35.3979ZM14.456 36.8899C14.822 39.6549 17.194 41.7969 20.058 41.7969H29.856C32.719 41.7969 35.092 39.6549 35.458 36.8899H14.456ZM14.408 45.4899C14.408 46.8359 15.234 47.9309 16.25 47.9309H33.665C34.68 47.9309 35.506 46.8359 35.506 45.4899V40.4959C34.2 42.1909 32.156 43.2889 29.856 43.2889H20.058C17.759 43.2889 15.715 42.1909 14.408 40.4949V45.4899Z" />
    </symbol>
    <symbol id="play" viewBox="0 0 67 55">
        <path fill-rule="evenodd" clip-rule="evenodd" d="M63.4488 51.134C61.4788 53.105 58.8078 54.214 56.0208 54.216H10.9778C8.19177 54.214 5.52077 53.105 3.54977 51.134C1.57977 49.164 0.471773 46.493 0.467773 43.708V11.281C0.471773 8.49497 1.57977 5.82497 3.54977 3.85297C5.52077 1.88497 8.19177 0.776973 10.9778 0.771973H56.0208C58.8078 0.776973 61.4788 1.88497 63.4488 3.85297C65.4198 5.82497 66.5278 8.49497 66.5308 11.281V43.708C66.5278 46.493 65.4198 49.164 63.4488 51.134ZM63.5278 11.281C63.5258 9.29097 62.7338 7.38497 61.3268 5.97597C59.9198 4.56997 58.0118 3.77897 56.0208 3.77597H10.9778C8.98777 3.77897 7.07977 4.56997 5.67277 5.97597C4.26477 7.38497 3.47277 9.29097 3.47077 11.281V43.708C3.47277 45.698 4.26477 47.606 5.67277 49.013C7.07977 50.419 8.98777 51.211 10.9778 51.214H56.0208C58.0118 51.211 59.9198 50.42 61.3268 49.013C62.7338 47.606 63.5258 45.698 63.5278 43.708V11.281ZM45.3468 32.588L33.1248 40.224C32.2198 40.8 31.1738 41.12 30.1008 41.148C29.0268 41.178 27.9658 40.913 27.0308 40.385C26.0878 39.872 25.3018 39.113 24.7568 38.186C24.2118 37.26 23.9278 36.205 23.9368 35.132V19.857C23.9368 18.422 24.4518 17.033 25.3868 15.943C26.3228 14.855 27.6178 14.137 29.0378 13.921C30.4578 13.705 31.9078 14.004 33.1248 14.765H33.1258L45.3468 22.402V22.403C47.1028 23.501 48.1698 25.426 48.1698 27.496C48.1698 29.565 47.1028 31.491 45.3468 32.588ZM43.7538 24.941L31.5318 17.311C31.0788 17.023 30.5568 16.864 30.0208 16.85C29.4838 16.836 28.9538 16.967 28.4858 17.23C28.0148 17.487 27.6218 17.867 27.3498 18.33C27.0768 18.792 26.9348 19.32 26.9398 19.857V35.132C26.9388 35.849 27.1948 36.544 27.6618 37.089C28.1298 37.635 28.7778 37.994 29.4868 38.103C30.1978 38.212 30.9228 38.063 31.5318 37.683H31.5328L43.7538 30.047V30.035C44.6318 29.485 45.1648 28.523 45.1648 27.488C45.1648 26.452 44.6318 25.491 43.7538 24.941Z"/>
    </symbol>
    <symbol id="blank" viewBox="0 0 19 19">
        <path fill-rule="evenodd" clip-rule="evenodd" d="M18.487 17.0331C18.304 17.4871 18.008 17.8661 17.587 18.1221C17.261 18.3201 16.88 18.4201 16.502 18.4221C16.187 18.4241 15.874 18.4221 15.559 18.4221H13.288H10.315H7.20802H4.57402H3.01202C2.89102 18.4221 2.76902 18.4271 2.65002 18.4131C2.15202 18.3581 1.69902 18.1701 1.33502 17.8191C1.02602 17.5221 0.794023 17.1041 0.731023 16.6781C0.675023 16.2971 0.694023 15.9091 0.694023 15.5231V13.3651V10.4251V7.31105V4.58805V2.88805V2.60005C0.701023 1.80805 1.16002 1.02805 1.89002 0.692051C2.19302 0.553051 2.50102 0.477051 2.83302 0.477051H3.05402H4.07602H7.08302H8.79202C9.14902 0.477051 9.41502 0.769051 9.43002 1.11605C9.44502 1.46205 9.12602 1.75505 8.79202 1.75505H8.03402H4.75902H3.33702C3.13002 1.75505 2.91502 1.74205 2.70702 1.75905C2.63402 1.77305 2.56402 1.79205 2.49402 1.81705C2.43302 1.84705 2.37302 1.88005 2.31602 1.91905C2.31402 1.92005 2.31102 1.92205 2.30702 1.92405C2.27802 1.95105 2.24702 1.97705 2.22002 2.00505C2.19102 2.03105 2.16702 2.06205 2.14002 2.09205C2.13602 2.09705 2.13102 2.10405 2.12702 2.11005C2.09202 2.16405 2.06202 2.21905 2.03402 2.27605C2.00902 2.34705 1.99002 2.42005 1.97502 2.49405C1.97202 2.53205 1.97102 2.57005 1.97102 2.61005C1.96702 3.14805 1.97102 3.68905 1.97102 4.23005V7.68105V11.6901V14.9881V15.9761C1.97102 16.1221 1.96602 16.2701 1.97702 16.4151C1.99102 16.4861 2.01002 16.5551 2.03302 16.6231C2.06302 16.6841 2.09602 16.7441 2.13502 16.8011C2.13602 16.8021 2.13802 16.8061 2.14002 16.8101C2.16702 16.8401 2.19302 16.8701 2.22002 16.8971C2.24702 16.9261 2.27802 16.9511 2.30702 16.9771C2.31402 16.9821 2.32002 16.9861 2.32702 16.9901C2.38002 17.0251 2.43502 17.0551 2.49102 17.0831C2.56302 17.1081 2.63502 17.1271 2.70902 17.1421C2.74802 17.1451 2.78602 17.1461 2.82402 17.1461C3.36302 17.1501 3.90302 17.1461 4.44402 17.1461H7.89102H11.896H15.191H16.178C16.323 17.1461 16.471 17.1511 16.616 17.1411C16.687 17.1261 16.756 17.1081 16.823 17.0841C16.885 17.0541 16.945 17.0211 17.002 16.9821C17.003 16.9821 17.006 16.9791 17.01 16.9771C17.04 16.9501 17.07 16.9241 17.097 16.8971C17.126 16.8701 17.151 16.8391 17.177 16.8101C17.182 16.8031 17.187 16.7971 17.191 16.7901C17.225 16.7371 17.256 16.6811 17.283 16.6261C17.309 16.5521 17.328 16.4781 17.343 16.4031C17.364 16.1541 17.346 15.8941 17.346 15.6461V12.4111V10.3211C17.346 9.96105 17.638 9.69705 17.983 9.67705C18.328 9.66305 18.621 9.98205 18.621 10.3161V10.7791V13.4991V16.036C18.621 16.375 18.617 16.7141 18.487 17.0331ZM17.982 7.54905C17.638 7.56405 17.344 7.24405 17.344 6.91105V6.19705V3.07105V2.66105C17.314 2.69105 17.284 2.72005 17.254 2.75105L8.83202 11.1821C8.58102 11.4351 8.18502 11.4161 7.92702 11.1821C7.67402 10.9501 7.69102 10.5151 7.92702 10.2781C7.93402 10.2731 7.93802 10.2681 7.94402 10.2621C8.32702 9.86605 8.72102 9.48305 9.11002 9.09405C9.91102 8.29305 10.709 7.49405 11.509 6.69305C12.434 5.76905 13.36 4.84205 14.286 3.91505L16.442 1.75705H14.148H12.196C11.837 1.75705 11.573 1.46305 11.558 1.11805C11.543 0.773051 11.862 0.479051 12.196 0.479051H12.909H16.031H17.982C18.056 0.479051 18.126 0.493051 18.192 0.516051C18.281 0.547051 18.365 0.596051 18.438 0.662051C18.566 0.780051 18.625 0.951051 18.621 1.12105V1.83105V4.95705V6.91105C18.621 7.26805 18.329 7.53405 17.982 7.54905Z" />
    </symbol>
    <symbol id="gun" viewBox="0 0 68 60">
        <path fill-rule="evenodd" clip-rule="evenodd" d="M67.5432 5.83683C67.4812 6.10983 67.3122 6.34783 67.0742 6.49583V6.49683L54.0512 14.6078L54.6122 15.5188C54.9062 16.0048 55.0042 16.5848 54.8872 17.1408C54.7692 17.6948 54.4442 18.1868 53.9792 18.5098H53.9782L34.2122 31.9908L34.9952 33.2398C35.4332 33.9368 35.5742 34.7798 35.3872 35.5828C35.1932 36.4258 34.6702 37.1578 33.9352 37.6128L32.7122 38.3798C32.1922 38.7068 31.5912 38.8808 30.9772 38.8808C29.9002 38.8888 28.8942 38.3398 28.3172 37.4288L27.6942 36.4368C27.6942 36.4368 23.1152 38.1948 23.9522 43.1238C24.0442 43.6688 23.7022 44.1918 23.1662 44.3258H23.1672L20.4382 44.0998L10.2972 58.3798C9.82017 59.0938 9.05417 59.5608 8.20317 59.6558C7.35117 59.7518 6.50017 59.4658 5.87817 58.8768L1.22117 54.5218C0.590174 53.9318 0.226174 53.1078 0.214174 52.2428C0.202174 51.3778 0.542174 50.5438 1.15617 49.9358C1.15917 49.9338 15.8782 36.6218 15.8782 36.6218C16.0872 36.4328 16.3622 36.3348 16.6432 36.3518L19.3242 36.5018L22.4562 32.3508L21.5902 30.9798C21.2832 30.4928 21.1832 29.9038 21.3122 29.3428C21.4402 28.7818 21.7882 28.2958 22.2762 27.9928H22.2772L29.0542 23.7708L28.4572 22.8738L24.4302 25.2928C23.9312 25.5858 23.2892 25.4258 22.9862 24.9328C22.8432 24.6928 22.8002 24.4048 22.8672 24.1338C22.9352 23.8628 23.1072 23.6298 23.3472 23.4858L33.8732 17.1628C34.3712 16.8628 35.0172 17.0248 35.3172 17.5238C35.6162 18.0228 35.4542 18.6698 34.9562 18.9698L30.2632 21.7888L30.8422 22.6578L60.1252 4.41783L59.4042 3.33383C59.0832 2.84983 59.2142 2.19683 59.6972 1.87483C60.1802 1.55183 60.8332 1.68283 61.1562 2.16583L61.9132 3.30283L64.1842 1.88883C64.6752 1.58283 65.3212 1.73083 65.6302 2.22183V2.22083L67.4082 5.03783C67.5572 5.27483 67.6062 5.56283 67.5432 5.83683ZM30.0992 36.3068C30.4352 36.7988 31.1032 36.9268 31.5952 36.5928L32.8192 35.8258C33.0792 35.6668 33.2652 35.4088 33.3352 35.1108C33.3962 34.8558 33.3532 34.5848 33.2132 34.3618L33.2142 34.3608L32.4722 33.1788L29.4352 35.2488L30.0992 36.3068ZM2.60117 51.4688C2.40917 51.6688 2.30417 51.9368 2.31017 52.2138C2.31617 52.5068 2.44117 52.7838 2.65717 52.9808L7.31417 57.3358C7.48617 57.5128 7.72717 57.6038 7.97317 57.5858C8.21917 57.5458 8.43617 57.3988 8.56417 57.1838C8.57617 57.1658 10.4962 54.6298 10.4962 54.6298L5.09117 49.2168L2.60117 51.4688ZM20.6652 38.2228C20.4522 38.5018 20.1162 38.6588 19.7662 38.6398L16.9642 38.4828L6.65517 47.8028L11.7812 52.9368L18.9862 43.4288C19.1322 43.2368 19.3392 43.1008 19.5722 43.0418V43.0428L21.7542 42.5038C21.3802 37.8018 24.4292 35.4688 26.3312 34.8168L52.7952 16.7678C52.8352 16.7318 52.8462 16.6728 52.8212 16.6258L52.2642 15.7218L24.6722 32.9098L20.6652 38.2228ZM64.4082 4.23083L23.3892 29.7838L23.3702 29.8528L23.9972 30.8478L65.0622 5.26583L64.4082 4.23083ZM67.4072 5.03683L67.4082 5.03783C67.4072 5.03783 67.4072 5.03783 67.4072 5.03683ZM35.9922 5.63383V3.50283C40.6132 4.12683 44.9442 6.10583 48.4422 9.19283L46.5712 10.3588C43.5442 7.84283 39.8842 6.20783 35.9922 5.63383ZM32.8362 8.03383C32.5572 8.03383 32.2892 7.92383 32.0922 7.72483C31.8942 7.52783 31.7842 7.25983 31.7842 6.97983V1.70783C31.7842 1.12483 32.2552 0.652832 32.8362 0.652832C33.4172 0.652832 33.8892 1.12483 33.8892 1.70783V6.97983C33.8892 7.25983 33.7782 7.52783 33.5802 7.72483C33.3832 7.92383 33.1162 8.03383 32.8362 8.03383ZM19.8992 32.2368L18.6342 33.9158C16.6212 29.7638 16.5212 24.9378 18.3602 20.7058C20.1992 16.4728 23.7942 13.2568 28.2002 11.9018C32.6062 10.5468 37.3832 11.1888 41.2772 13.6588L39.2602 14.9158C37.2842 13.8578 35.0772 13.3038 32.8362 13.3068C28.8912 13.3018 25.1372 15.0048 22.5392 17.9768C19.9402 20.9488 18.7502 24.9008 19.2762 28.8158C19.2722 28.8338 19.2662 28.8498 19.2612 28.8668C19.0042 29.9738 19.2032 31.1388 19.8122 32.0978L19.8992 32.2368ZM17.5882 11.7398C14.3142 15.0198 12.1782 19.2658 11.4942 23.8518H9.37317C10.0712 18.7038 12.4352 13.9268 16.1022 10.2528C19.7692 6.57783 24.5392 4.20783 29.6792 3.50583V5.63183H29.6782C25.1002 6.31883 20.8612 8.46083 17.5882 11.7398ZM13.2792 36.1288L11.6522 37.6008C10.4892 35.2688 9.71917 32.7618 9.37417 30.1788H11.5002C11.8012 32.2378 12.4012 34.2428 13.2782 36.1288H13.2792ZM13.8922 27.0148C13.8922 27.5968 13.4212 28.0688 12.8392 28.0688H7.57717C6.99517 28.0688 6.52417 27.5968 6.52417 27.0148C6.52417 26.4328 6.99517 25.9608 7.57717 25.9608H12.8392C13.4212 25.9608 13.8922 26.4328 13.8922 27.0148ZM23.3832 46.4418C25.3692 47.4138 27.4922 48.0718 29.6782 48.3918V50.5288C26.6582 50.1228 23.7462 49.1298 21.1032 47.6108L21.6672 46.8658L23.3832 46.4418ZM32.8362 45.9948C33.4182 45.9948 33.8892 46.4678 33.8892 47.0498V52.3218C33.8892 52.9048 33.4172 53.3758 32.8362 53.3758C32.2552 53.3758 31.7842 52.9048 31.7842 52.3218V47.0498C31.7842 46.4678 32.2552 45.9948 32.8362 45.9948ZM48.4672 24.8088C48.5702 25.5398 48.6222 26.2768 48.6232 27.0148C48.6282 32.4578 45.8342 37.5218 41.2292 40.4148C36.6252 43.3078 30.8572 43.6248 25.9642 41.2528C26.0112 40.5258 26.3272 39.8448 26.8502 39.3388C28.7142 40.2508 30.7622 40.7248 32.8362 40.7228C36.4652 40.7178 39.9432 39.2718 42.5082 36.7018C45.0732 34.1318 46.5152 30.6478 46.5182 27.0148C46.5182 26.7268 46.5062 26.4418 46.4892 26.1578L48.4672 24.8088ZM48.0862 42.2898C51.3592 39.0108 53.4952 34.7658 54.1792 30.1788H56.3012C55.6032 35.3268 53.2382 40.1038 49.5712 43.7778C45.9032 47.4528 41.1342 49.8218 35.9932 50.5238V48.3988H35.9942C40.5742 47.7118 44.8122 45.5698 48.0862 42.2898ZM54.1712 23.8518C54.0442 22.9848 53.8652 22.1268 53.6352 21.2818L55.1602 20.2408C55.2682 20.1668 55.3602 20.0798 55.4592 19.9988C55.8472 21.2568 56.1302 22.5458 56.3022 23.8518H54.1712ZM51.7802 27.0158C51.7802 26.4328 52.2512 25.9608 52.8332 25.9608H58.0952C58.6772 25.9608 59.1492 26.4328 59.1492 27.0158C59.1492 27.5978 58.6772 28.0698 58.0952 28.0698H52.8332C52.2512 28.0698 51.7802 27.5978 51.7802 27.0158Z" />
    </symbol>
    <symbol id="fish" viewBox="0 0 60 60">
        <path fill-rule="evenodd" clip-rule="evenodd" d="M42.7219 49.0151L40.5729 49.0161L42.0159 47.4261C43.6389 45.6341 44.6089 42.6731 44.6089 39.5061L44.6099 39.5051C44.6099 32.8411 36.6369 28.0131 33.2099 26.2451C31.4319 25.3291 30.3279 23.5091 30.3279 21.4941C30.3279 19.3461 31.6059 17.4101 33.5819 16.5651L33.6549 16.5351C36.3979 15.3711 39.3009 14.7811 42.2809 14.7811C51.4919 14.7811 59.5299 22.3491 59.8319 31.3081C59.9899 35.9921 58.2849 40.4241 55.0319 43.7891C51.7779 47.1541 47.4059 49.0101 42.7219 49.0151ZM42.2809 16.6831C39.5339 16.6831 36.8589 17.2311 34.3329 18.3111L34.2889 18.3311L34.2879 18.3301C33.0549 18.8781 32.2569 20.0881 32.2359 21.4401H36.0399V23.3421L32.7639 23.3411C33.0829 23.8481 33.5309 24.2711 34.0829 24.5561C35.0599 25.0611 36.1779 25.6921 37.3309 26.4331L38.2789 26.6221C39.9139 26.9481 41.6319 26.9081 43.2499 26.5031C46.1869 25.7701 48.6609 23.9381 50.2189 21.3461L50.4569 20.9491L52.0899 21.9261L51.8519 22.3231C50.0339 25.3501 47.1419 27.4911 43.7109 28.3471C42.6639 28.6091 41.5809 28.7401 40.4979 28.7401C40.4939 28.7401 40.4899 28.7391 40.4859 28.7391C43.7199 31.4441 46.5129 35.0581 46.5129 39.5041C46.5129 42.2761 45.8399 44.9371 44.6609 46.9891C48.0819 46.5541 51.2259 44.9861 53.6639 42.4641C56.5549 39.4751 58.0699 35.5341 57.9299 31.3701C57.6609 23.4091 50.4939 16.6831 42.2809 16.6831ZM49.3689 33.8001H51.2739C51.2739 34.3241 51.6999 34.7511 52.2259 34.7511C52.7509 34.7511 53.1779 34.3241 53.1779 33.8001H55.0819C55.0819 35.3731 53.7999 36.6531 52.2259 36.6531C50.6509 36.6531 49.3689 35.3731 49.3689 33.8001ZM49.3689 31.8981C47.6759 31.8981 46.0949 30.9871 45.2469 29.5211L46.8939 28.5701C47.4049 29.4491 48.3529 29.9961 49.3689 29.9961C50.9439 29.9961 52.2259 28.7161 52.2259 27.1441V27.1431C52.2259 26.4481 51.9709 25.7781 51.5109 25.2571L52.9399 23.9991C53.7069 24.8671 54.1299 25.9841 54.1299 27.1441C54.1299 29.7661 51.9939 31.8981 49.3689 31.8981ZM50.3219 40.4571C50.8469 40.4571 51.2739 40.0301 51.2739 39.5061H53.1779C53.1779 41.0791 51.8959 42.3591 50.3219 42.3591C48.7469 42.3591 47.4649 41.0791 47.4649 39.5061H49.3689C49.3689 40.0301 49.7959 40.4571 50.3219 40.4571ZM40.8009 23.3401C39.2259 23.3401 37.9449 22.0601 37.9449 20.4871C37.9449 18.9141 39.2259 17.6341 40.8009 17.6341C42.3759 17.6341 43.6569 18.9141 43.6569 20.4871C43.6569 22.0601 42.3759 23.3401 40.8009 23.3401ZM40.8009 19.5361C40.2759 19.5361 39.8489 19.9631 39.8489 20.4871C39.8489 21.0111 40.2759 21.4381 40.8009 21.4381C41.3259 21.4381 41.7529 21.0111 41.7529 20.4871C41.7529 19.9631 41.3259 19.5361 40.8009 19.5361ZM28.9869 12.1381C25.9539 14.4651 18.9039 20.7711 18.9039 29.0451C18.9039 33.5661 19.7939 34.9961 21.2459 36.9541L22.2469 38.3051L20.5709 38.4671C19.9579 38.5261 19.4129 38.5551 18.9039 38.5551C8.92894 38.5551 0.814941 30.0231 0.814941 19.5361C0.814941 9.04907 8.92894 0.518066 18.9039 0.518066H19.6159C22.4319 0.518066 25.1719 1.07907 27.7599 2.18707C29.8989 3.10207 31.2799 5.19607 31.2799 7.52007C31.2799 9.33607 30.4439 11.0191 28.9869 12.1381ZM29.3359 6.97707L26.0589 8.94207L25.0789 7.31007L28.5999 5.20007C28.1969 4.65707 27.6589 4.21307 27.0109 3.93507C24.6609 2.92907 22.1729 2.41907 19.6159 2.41907H18.9039H18.9029C9.97794 2.41907 2.71794 10.0981 2.71794 19.5361C2.71794 28.9111 9.88194 36.5511 18.7249 36.6521C17.6549 34.9221 16.9989 32.9531 16.9989 29.0451C16.9989 24.3791 18.9149 20.3611 21.3119 17.1461C20.6159 17.2571 19.9119 17.3291 19.2059 17.3291C18.1219 17.3291 17.0399 17.1981 15.9929 16.9361C12.5609 16.0791 9.66994 13.9391 7.85194 10.9121L7.61394 10.5151L9.24694 9.53807L9.48494 9.93407C11.0419 12.5271 13.5169 14.3581 16.4539 15.0911C18.0699 15.4961 19.7889 15.5361 21.4249 15.2101L23.2099 14.8541C24.8179 13.0951 26.4739 11.6681 27.8259 10.6301C28.8109 9.87507 29.3759 8.74107 29.3759 7.52007C29.3759 7.33607 29.3609 7.15407 29.3359 6.97707ZM15.0949 10.0271C13.5209 10.0271 12.2389 8.74707 12.2389 7.17407C12.2389 5.60207 13.5209 4.32207 15.0949 4.32207C16.6699 4.32207 17.9519 5.60207 17.9519 7.17407C17.9519 8.74707 16.6699 10.0271 15.0949 10.0271ZM15.0949 6.22307C14.5699 6.22307 14.1429 6.65007 14.1429 7.17407C14.1429 7.69807 14.5699 8.12507 15.0949 8.12507C15.6209 8.12507 16.0479 7.69807 16.0479 7.17407C16.0479 6.65007 15.6209 6.22307 15.0949 6.22307ZM7.47894 15.7331C7.47894 17.3051 8.75994 18.5851 10.3349 18.5851C11.3519 18.5851 12.2999 18.0381 12.8109 17.1591L14.4569 18.1101C13.6089 19.5761 12.0289 20.4871 10.3349 20.4871V20.4881C7.70994 20.4881 5.57494 18.3541 5.57494 15.7331C5.57494 14.5731 5.99794 13.4561 6.76494 12.5881L8.19294 13.8461C7.73294 14.3671 7.47894 15.0371 7.47894 15.7331ZM8.43094 26.1921C8.95594 26.1921 9.38294 25.7661 9.38294 25.2411H11.2869C11.2869 26.8151 10.0059 28.0951 8.43094 28.0951C6.85594 28.0951 5.57494 26.8151 5.57494 25.2411H7.47894C7.47894 25.7661 7.90594 26.1921 8.43094 26.1921ZM12.2389 30.9471C12.7649 30.9471 13.1909 30.5201 13.1909 29.9961H15.0949C15.0949 31.5701 13.8139 32.8491 12.2389 32.8491C10.6649 32.8491 9.38294 31.5701 9.38294 29.9961H11.2869C11.2869 30.5201 11.7139 30.9471 12.2389 30.9471ZM11.2869 21.4381H13.1909C13.1909 21.9621 13.6179 22.3891 14.1429 22.3891C14.6689 22.3891 15.0949 21.9621 15.0949 21.4381H16.0999C16.0999 23.0111 15.7179 24.2911 14.1429 24.2911C12.5689 24.2911 11.2869 23.0111 11.2869 21.4381ZM3.47994 31.5191C2.98094 32.1811 2.71894 32.9701 2.71894 33.8001C2.71894 35.8981 4.42694 37.6031 6.52694 37.6031C7.35794 37.6031 8.14794 37.3411 8.81194 36.8431L9.95494 38.3651C8.95894 39.1111 7.77394 39.5061 6.52694 39.5061C3.37694 39.5061 0.814941 36.9461 0.814941 33.8001C0.814941 32.5551 1.20994 31.3711 1.95694 30.3771L3.47994 31.5191ZM15.0959 43.4721C15.0959 44.9311 15.6869 46.3601 16.7199 47.3911C17.7529 48.4241 19.1829 49.0151 20.6429 49.0151H22.4479C22.0049 47.0221 22.1109 44.9511 22.7609 43.0091L22.9779 42.3591H23.6639C25.7109 42.3591 27.5619 41.3121 28.5739 39.6271C29.0989 38.7531 29.3769 37.7511 29.3769 36.7331V35.7021H28.6549C25.7959 35.7021 23.1079 34.5891 21.0869 32.5701L22.4329 31.2261C24.0959 32.8861 26.3039 33.7991 28.6549 33.7991H31.2809V36.7331C31.2809 38.0971 30.9089 39.4351 30.2069 40.6061C28.9639 42.6771 26.7719 44.0271 24.3829 44.2321C23.9919 45.7431 23.9849 47.3261 24.3649 48.8491L24.8839 50.9161H20.6439C18.6829 50.9161 16.7619 50.1221 15.3739 48.7361C13.9879 47.3511 13.1919 45.4321 13.1919 43.4721V39.5051H15.0959V43.4721ZM41.1819 42.5481L42.3249 44.0701C39.9589 45.8411 37.0839 46.8951 34.1379 47.0831C34.1599 48.0851 34.5759 49.0601 35.2859 49.7691C36.0169 50.4981 37.0269 50.9161 38.0599 50.9161H40.8009V51.8671C40.8009 53.8351 40.3459 55.8051 39.4839 57.5731H40.0119C41.4729 57.5731 42.9029 56.9811 43.9359 55.9501C44.9689 54.9181 45.5609 53.4891 45.5609 52.0311V49.9661H47.4649V52.0311C47.4649 53.9911 46.6689 55.9091 45.2819 57.2951C43.8959 58.6801 41.9749 59.4751 40.0129 59.4751H36.4039L37.7199 56.8471C38.3489 55.5931 38.7339 54.2171 38.8559 52.8191H38.0599C36.5029 52.8191 35.0399 52.2131 33.9389 51.1141C32.8389 50.0141 32.2319 48.5521 32.2319 46.9981V45.2111H33.1839C36.0489 45.2111 38.8889 44.2651 41.1819 42.5481ZM54.1299 49.0151C56.2299 49.0151 57.9379 47.3081 57.9379 45.2111C57.9379 44.3801 57.6739 43.5911 57.1759 42.9291L58.6999 41.7861V41.7871C59.4469 42.7801 59.8419 43.9641 59.8419 45.2111C59.8419 48.3581 57.2799 50.9161 54.1299 50.9161C52.8809 50.9161 51.6939 50.5211 50.6989 49.7741L51.8419 48.2521C52.5069 48.7511 53.2979 49.0151 54.1299 49.0151Z" />
    </symbol>
    <symbol id="optional" viewBox="0 0 52 52">
        <path fill-rule="evenodd" clip-rule="evenodd" d="M49.3082 35.6508C48.0322 38.7258 46.1922 41.4798 43.8372 43.8338C41.4832 46.1878 38.7292 48.0278 35.6542 49.3048C32.6122 50.5678 29.4022 51.2158 26.1112 51.2338H26.1102H25.1002C22.6692 51.2338 19.4192 50.5878 16.3422 49.3138C13.2652 48.0388 10.5102 46.1978 8.15421 43.8418C5.79921 41.4868 3.95821 38.7318 2.68421 35.6558C1.40921 32.5768 0.762207 29.3278 0.762207 25.9968C0.762207 22.6658 1.40921 19.4168 2.68421 16.3388C3.95821 13.2618 5.79921 10.5058 8.15421 8.15177C10.5102 5.79677 13.2642 3.95577 16.3422 2.68077C19.4202 1.40577 22.6692 0.759766 25.1002 0.759766C29.3312 0.759766 32.5802 1.40577 35.6582 2.68077C38.7352 3.95577 41.4902 5.79677 43.8452 8.15177C46.2012 10.5058 48.0412 13.2618 49.3162 16.3388C50.5912 19.4168 51.2372 22.6658 51.2372 25.9968C51.2332 29.3268 50.5842 32.5748 49.3082 35.6508ZM42.3562 9.64177C37.9872 5.27277 32.1782 2.86277 25.1002 2.85577C19.8182 2.85577 14.0072 5.26277 9.63621 9.63277C5.26521 14.0048 2.85821 19.8158 2.85821 25.9978C2.85821 32.1788 5.26521 37.9898 9.63621 42.3618C14.0072 46.7318 19.8182 49.1398 25.1002 49.1398C32.1812 49.1398 37.9932 46.7318 42.3642 42.3618C46.7352 37.9898 49.1422 32.1788 49.1422 25.9978C49.1352 19.8188 46.7252 14.0098 42.3562 9.64177ZM32.9672 42.8208C30.7472 43.7418 28.4032 44.2098 25.1002 44.2128H25.3532L25.3652 44.2008C23.1832 44.1258 21.0552 43.6638 19.0302 42.8258C16.8092 41.9048 14.8212 40.5768 13.1212 38.8768C11.4212 37.1768 10.0922 35.1888 9.17221 32.9678C8.25221 30.7468 7.78621 28.4018 7.78621 25.9978C7.78621 23.5938 8.25221 21.2488 9.17221 19.0268C10.0922 16.8068 11.4212 14.8178 13.1212 13.1188C14.8212 11.4188 16.8092 10.0898 19.0302 9.16977C21.2512 8.24977 23.5962 7.78377 25.1002 7.78377C28.4042 7.78377 30.7492 8.24977 32.9702 9.16977C35.1912 10.0898 37.1792 11.4188 38.8792 13.1188C40.5792 14.8188 41.9072 16.8068 42.8272 19.0268C43.7472 21.2488 44.2142 23.5938 44.2142 25.9978C44.2112 28.4018 43.7432 30.7448 42.8222 32.9648C41.9012 35.1848 40.5722 37.1718 38.8732 38.8718C37.1742 40.5708 35.1872 41.8988 32.9672 42.8208ZM25.1002 27.0448C25.7202 27.0448 25.4572 26.9358 25.2592 26.7378C25.0612 26.5408 24.9522 26.2768 24.9522 25.9968V24.2098C24.8002 24.2988 24.6592 24.4058 24.5342 24.5308C24.1482 24.9168 23.9272 25.4508 23.9272 25.9968C23.9272 26.5438 24.1482 27.0768 24.5342 27.4638C24.9202 27.8488 25.4542 28.0708 25.1002 28.0708C26.5462 28.0708 27.0802 27.8488 27.4662 27.4638C27.8522 27.0768 28.0732 26.5438 28.0732 25.9968C28.0732 25.4438 27.8572 24.9238 27.4652 24.5318C27.3392 24.4058 27.1982 24.2988 27.0482 24.2118V25.9968C27.0482 26.2768 26.9392 26.5408 26.7412 26.7378C26.5432 26.9358 26.2802 27.0448 25.1002 27.0448ZM37.3922 14.6048C34.5692 11.7818 30.8822 10.1338 26.9282 9.90577C27.0042 10.0518 27.0482 10.2168 27.0482 10.3908V21.9608C27.7602 22.1438 28.4142 22.5158 28.9482 23.0488C29.7352 23.8368 30.1692 24.8838 30.1692 25.9968C30.1682 27.1098 29.7342 28.1568 28.9472 28.9438C28.1592 29.7308 27.1132 30.1648 26.0002 30.1668H25.1002C24.8872 30.1668 23.8402 29.7328 23.0522 28.9458C22.2642 28.1578 21.8312 27.1108 21.8312 25.9968C21.8312 24.8838 22.2642 23.8368 23.0522 23.0488C23.5862 22.5158 24.2402 22.1438 24.9522 21.9608V10.3908C24.9522 10.2158 24.9962 10.0508 25.0722 9.90477C21.1152 10.1288 17.4272 11.7738 14.6022 14.5998C11.7772 17.4248 10.1312 21.1128 9.90821 25.0698C9.98521 25.0298 10.0682 24.9978 10.1552 24.9778C10.2642 24.5158 10.6792 24.1688 11.1742 24.1688C11.6702 24.1688 12.0852 24.5158 12.1932 24.9778C12.6562 25.0868 13.0022 25.5018 13.0022 25.9968C13.0022 26.4878 12.6632 26.8998 12.2072 27.0128C12.1722 27.2278 12.0722 27.4258 11.9152 27.5838C11.7172 27.7808 11.4542 27.8898 11.1742 27.8898C10.8942 27.8898 10.6312 27.7808 10.4332 27.5838C10.2762 27.4258 10.1762 27.2278 10.1412 27.0128C10.0592 26.9928 9.98121 26.9628 9.90821 26.9248C10.1312 30.8818 11.7772 34.5698 14.6022 37.3948C17.4262 40.2198 21.1152 41.8658 25.0712 42.0888C25.0302 42.0108 25.0002 41.9278 24.9802 41.8428C24.5182 41.7328 24.1722 41.3188 24.1722 40.8228C24.1722 40.3278 24.5182 39.9128 24.9812 39.8038C25.0892 39.3408 25.5042 38.9958 25.1002 38.9958C26.4952 38.9958 26.9112 39.3408 27.0192 39.8038C27.4822 39.9128 27.8282 40.3278 27.8282 40.8228C27.8282 41.3188 27.4822 41.7328 27.0192 41.8428C26.9992 41.9278 26.9692 42.0108 26.9292 42.0888C30.8852 41.8658 34.5732 40.2198 37.3982 37.3948C40.4422 34.3508 42.1192 30.3028 42.1192 25.9968C42.1142 21.6938 40.4352 17.6488 37.3922 14.6048ZM36.8852 27.5188C36.6872 27.7168 36.4242 27.8258 36.1442 27.8258C35.8642 27.8258 35.6012 27.7168 35.4032 27.5188C35.2632 27.3778 35.1682 27.2048 35.1242 27.0158C34.6622 26.9078 34.3162 26.4928 34.3162 25.9968C34.3162 25.5018 34.6622 25.0868 35.1252 24.9788C35.2332 24.5158 35.6482 24.1688 36.1442 24.1688C36.6392 24.1688 37.0552 24.5158 37.1632 24.9788C37.6262 25.0868 37.9722 25.5018 37.9722 25.9968C37.9722 26.4928 37.6262 26.9078 37.1632 27.0158C37.1202 27.2048 37.0252 27.3778 36.8852 27.5188Z" />
    </symbol>
    <symbol id="comfort" viewBox="0 0 50 52" >
<path fill-rule="evenodd" clip-rule="evenodd" d="M48.6829 50.7388C48.6559 50.7518 47.2689 51.2658 47.2689 51.2658C46.6749 51.5508 45.9919 51.5918 45.3699 51.3758C44.7469 51.1598 44.2399 50.6978 43.9659 50.0968L42.0079 45.8668L39.5699 40.3978H36.4529H34.8669H15.9639C15.4589 40.7788 14.8639 41.0238 14.2359 41.1068V50.7198C14.2359 51.1588 13.8809 51.5138 13.4429 51.5138C13.0049 51.5138 12.6499 51.1588 12.6499 50.7198V41.1958L12.0239 41.1918C10.5629 41.1828 9.15188 40.6538 8.04588 39.6988C6.93888 38.7428 6.20788 37.4248 5.98388 35.9808C5.93088 35.7958 1.27488 5.05781 0.755878 1.61481C0.724878 1.38581 0.792878 1.15581 0.943878 0.981812C1.09288 0.806812 1.31088 0.705812 1.54088 0.701812C1.54788 0.701812 5.09888 0.696812 5.17988 0.696812C6.25888 0.692812 7.30988 1.03481 8.17988 1.67381C9.04888 2.31181 9.69088 3.21381 10.0099 4.24581L14.3279 16.7728C14.6229 16.2248 15.0029 15.7278 15.4529 15.2998C16.1059 15.5608 16.7969 15.7198 17.4989 15.7658C16.6979 16.1858 16.0499 16.8488 15.6489 17.6608C15.3829 18.2018 15.2409 18.7948 15.2339 19.3988L18.9139 30.0758H22.9689L19.6649 22.8638C19.5769 22.6718 19.5679 22.4538 19.6409 22.2558C19.7139 22.0578 19.8629 21.8968 20.0549 21.8098C20.2459 21.7218 20.4649 21.7138 20.6629 21.7878C20.8599 21.8608 21.0199 22.0108 21.1069 22.2018L24.7139 30.0758H39.7269C40.0359 30.0758 40.2379 29.6308 40.2219 29.3738L40.1379 28.0208C40.1029 27.6568 39.8309 27.3608 39.4709 27.2978H27.3289C27.0089 27.2978 26.7199 27.1058 26.5969 26.8088L25.2079 23.4898C25.0399 23.0848 25.2309 22.6208 25.6339 22.4518C26.0379 22.2828 26.5019 22.4728 26.6719 22.8758L27.8569 25.7088H29.3839L26.3609 16.9868C26.0569 16.1538 25.5009 15.4378 24.7699 14.9378C24.0379 14.4378 23.1689 14.1798 22.2829 14.1998C22.7799 13.7818 23.2139 13.2948 23.5709 12.7528C25.5539 13.1498 27.1819 14.5598 27.8599 16.4668L31.0639 25.7088H39.4789C40.0589 25.7398 40.6059 25.9828 41.0189 26.3918C41.4319 26.7988 41.6819 27.3428 41.7219 27.9218L41.8059 29.2748C41.8289 29.7788 41.6899 30.2758 41.4099 30.6928C42.3889 31.3448 43.0919 32.3358 43.3839 33.4758L49.6709 47.5088C50.2629 48.8208 49.8559 50.1498 48.6829 50.7388ZM48.2239 48.1608L43.5949 37.8298L42.0089 36.0298H36.8509C36.4129 36.0298 36.0579 35.6738 36.0579 35.2358C36.0579 34.7968 36.4129 34.4418 36.8509 34.4418H41.9849C41.5119 32.0298 39.8949 31.6968 39.6729 31.6638H18.3489C18.0099 31.6638 17.7089 31.4488 17.5989 31.1288L8.50988 4.76281C8.31088 4.07881 7.90288 3.47381 7.34488 3.03081C6.78688 2.58881 6.10588 2.33081 5.39388 2.29281C5.36188 2.34881 5.32288 2.40181 5.27788 2.44781C5.12888 2.59681 4.92688 2.68081 4.71488 2.68181C4.50488 2.68281 4.30288 2.59781 4.15588 2.44781C4.10888 2.40081 4.06788 2.34781 4.03488 2.28981H2.46388C3.27288 7.65981 7.37388 34.8518 7.42988 35.2028C7.52088 35.7978 7.68188 36.3808 7.91088 36.9388C8.27288 37.7278 8.85188 38.3978 9.57988 38.8698C10.3089 39.3418 11.1559 39.5968 12.0239 39.6038C13.0269 39.6088 14.3309 39.7838 15.1249 39.0278C15.2729 38.8878 15.4689 38.8098 15.6719 38.8098L40.6949 39.0818L45.4069 49.4308C45.5099 49.6438 45.6959 49.8068 45.9209 49.8808C46.1469 49.9558 46.3919 49.9348 46.6019 49.8248C46.6279 49.8128 48.0049 49.3028 48.0049 49.3028C48.5149 49.0208 48.3629 48.4678 48.2239 48.1608ZM12.6489 34.8398C12.2109 34.8398 11.8549 34.4838 11.8549 34.0458C11.8549 33.6068 12.2109 33.2518 12.6489 33.2518C13.0869 33.2518 13.4419 33.6068 13.4419 34.0458C13.4419 34.4838 13.0869 34.8398 12.6489 34.8398ZM17.9529 14.1948C16.5859 14.1928 15.2749 13.6488 14.3079 12.6818C13.3409 11.7138 12.7969 10.4018 12.7959 9.03381C12.7959 7.66481 13.3389 6.35181 14.3059 5.38381C15.2739 4.41581 16.5859 3.87181 17.9529 3.87181C19.3209 3.87181 20.6329 4.41581 21.5999 5.38381C22.5679 6.35181 23.1109 7.66581 23.1109 9.03381C23.1109 10.4028 22.5669 11.7158 21.5999 12.6828C20.6329 13.6508 19.3209 14.1948 17.9529 14.1948ZM20.4779 6.50681C19.8079 5.83681 18.8999 5.45981 17.9529 5.45981C17.0069 5.46181 16.0989 5.83881 15.4299 6.50781C14.7599 7.17781 14.3839 8.08581 14.3829 9.03381C14.3829 9.98081 14.7589 10.8898 15.4289 11.5608C16.0979 12.2308 17.0059 12.6068 17.9529 12.6068C18.8999 12.6068 19.8079 12.2308 20.4779 11.5608C21.1479 10.8898 21.5239 9.98081 21.5239 9.03381C21.5239 8.08581 21.1479 7.17681 20.4779 6.50681Z"/>
</symbol>
<symbol id="winch" viewBox="0 0 44 50">
<path fill-rule="evenodd" clip-rule="evenodd" d="M22.9881 46.4312C23.5691 45.1952 23.0401 43.7072 21.8071 43.1132C18.1851 41.4012 16.1331 42.4772 14.4631 43.3522C13.4571 43.8872 12.5881 44.3482 10.9721 44.3992C9.11809 44.4602 7.20409 43.1522 6.20809 41.1392C5.78909 40.3132 4.98409 38.1862 6.53409 36.2672C8.98609 33.2302 12.1971 34.8452 12.8011 35.1902C13.8551 35.8242 15.2351 35.5792 16.0091 34.6212L19.4181 30.3992L21.3551 31.9642L30.8571 29.5642L43.5461 13.8512L26.6401 0.200195L13.9521 15.9132L13.6071 25.7072L15.5441 27.2712L13.3211 30.0242C11.2021 29.3502 6.38509 28.5242 2.65909 33.1382C0.33709 36.0142 -0.00291014 39.8362 1.75009 43.3632C2.46809 44.8032 3.50909 46.0982 4.76109 47.1092C6.65309 48.6372 8.91409 49.4422 11.1281 49.3752C13.9251 49.2832 15.6541 48.3622 16.7971 47.7532C18.0671 47.0802 18.2951 46.9572 19.6761 47.6142C20.2811 47.8982 20.9611 47.9312 21.5901 47.7032C22.2141 47.4772 22.7101 47.0242 22.9881 46.4312ZM29.8271 27.9582L21.7871 29.9882L17.0301 26.1472L33.2861 23.6742L29.8271 27.9582ZM26.9121 2.7452L32.3311 7.1212L22.1271 8.6712L26.9121 2.7452ZM15.7391 16.5802L20.4431 10.7562L34.2391 8.6622L40.0781 13.3772L31.4741 14.6812C31.2241 14.0482 30.8301 13.4642 30.2641 13.0072C28.5161 11.5952 25.9471 11.8672 24.5371 13.6122C23.9961 14.2832 23.7081 15.0752 23.6521 15.8762L15.7221 17.0752L15.7391 16.5802ZM29.4681 17.5942C28.6851 18.5642 27.2591 18.7152 26.2871 17.9312C25.3161 17.1482 25.1631 15.7212 25.9461 14.7502C26.7301 13.7812 28.1571 13.6292 29.1281 14.4142C30.0991 15.1982 30.2521 16.6252 29.4681 17.5942ZM15.4591 24.5552L15.6581 18.9152L23.9411 17.6632C24.1911 18.2962 24.5851 18.8812 25.1511 19.3392C26.8991 20.7492 29.4681 20.4772 30.8771 18.7322C31.4191 18.0612 31.7071 17.2692 31.7631 16.4672L40.1301 15.2002L34.9721 21.5872L15.4591 24.5552ZM20.9741 46.0022C20.8001 46.0652 20.6131 46.0562 20.4501 45.9792C18.3471 44.9802 17.4601 45.3522 15.9461 46.1572C14.8911 46.7202 13.4451 47.4902 11.0701 47.5692C9.29009 47.6222 7.45309 46.9592 5.89809 45.7032C4.84809 44.8552 3.97309 43.7682 3.37109 42.5592C1.94209 39.6832 2.20309 36.5872 4.06909 34.2772C7.46309 30.0742 11.9881 31.4202 13.2951 31.9332L13.9131 32.1752L16.9541 28.4092L18.0101 29.2632L14.6021 33.4832C14.3911 33.7442 14.0171 33.8122 13.7161 33.6322C13.1991 33.3352 8.57109 30.8642 5.12609 35.1302C2.85209 37.9472 4.14409 41.0662 4.59009 41.9482C5.89409 44.5792 8.48309 46.2912 11.0331 46.2092C13.0681 46.1442 14.2101 45.5382 15.3281 44.9452C16.8201 44.1632 18.2301 43.4232 21.0301 44.7452C21.3641 44.9062 21.5101 45.3172 21.3491 45.6632C21.2761 45.8212 21.1421 45.9412 20.9741 46.0012V46.0022Z"/>
</symbol>
<symbol id="close" viewBox="0 0 30 29">
<path fill-rule="evenodd" clip-rule="evenodd" d="M8.77734 6.36401L22.9195 20.5062L21.5053 21.9204L7.36313 7.77823L8.77734 6.36401Z" />
<path fill-rule="evenodd" clip-rule="evenodd" d="M22.918 7.77808L8.77583 21.9202L7.36162 20.506L21.5038 6.36386L22.918 7.77808Z" />
</symbol>

</svg>
