<svg width="44" height="50" viewBox="0 0 44 50" fill="none" xmlns="http://www.w3.org/2000/svg">
<path fill-rule="evenodd" clip-rule="evenodd" d="M22.9881 46.4312C23.5691 45.1952 23.0401 43.7072 21.8071 43.1132C18.1851 41.4012 16.1331 42.4772 14.4631 43.3522C13.4571 43.8872 12.5881 44.3482 10.9721 44.3992C9.11809 44.4602 7.20409 43.1522 6.20809 41.1392C5.78909 40.3132 4.98409 38.1862 6.53409 36.2672C8.98609 33.2302 12.1971 34.8452 12.8011 35.1902C13.8551 35.8242 15.2351 35.5792 16.0091 34.6212L19.4181 30.3992L21.3551 31.9642L30.8571 29.5642L43.5461 13.8512L26.6401 0.200195L13.9521 15.9132L13.6071 25.7072L15.5441 27.2712L13.3211 30.0242C11.2021 29.3502 6.38509 28.5242 2.65909 33.1382C0.33709 36.0142 -0.00291014 39.8362 1.75009 43.3632C2.46809 44.8032 3.50909 46.0982 4.76109 47.1092C6.65309 48.6372 8.91409 49.4422 11.1281 49.3752C13.9251 49.2832 15.6541 48.3622 16.7971 47.7532C18.0671 47.0802 18.2951 46.9572 19.6761 47.6142C20.2811 47.8982 20.9611 47.9312 21.5901 47.7032C22.2141 47.4772 22.7101 47.0242 22.9881 46.4312ZM29.8271 27.9582L21.7871 29.9882L17.0301 26.1472L33.2861 23.6742L29.8271 27.9582ZM26.9121 2.7452L32.3311 7.1212L22.1271 8.6712L26.9121 2.7452ZM15.7391 16.5802L20.4431 10.7562L34.2391 8.6622L40.0781 13.3772L31.4741 14.6812C31.2241 14.0482 30.8301 13.4642 30.2641 13.0072C28.5161 11.5952 25.9471 11.8672 24.5371 13.6122C23.9961 14.2832 23.7081 15.0752 23.6521 15.8762L15.7221 17.0752L15.7391 16.5802ZM29.4681 17.5942C28.6851 18.5642 27.2591 18.7152 26.2871 17.9312C25.3161 17.1482 25.1631 15.7212 25.9461 14.7502C26.7301 13.7812 28.1571 13.6292 29.1281 14.4142C30.0991 15.1982 30.2521 16.6252 29.4681 17.5942ZM15.4591 24.5552L15.6581 18.9152L23.9411 17.6632C24.1911 18.2962 24.5851 18.8812 25.1511 19.3392C26.8991 20.7492 29.4681 20.4772 30.8771 18.7322C31.4191 18.0612 31.7071 17.2692 31.7631 16.4672L40.1301 15.2002L34.9721 21.5872L15.4591 24.5552ZM20.9741 46.0022C20.8001 46.0652 20.6131 46.0562 20.4501 45.9792C18.3471 44.9802 17.4601 45.3522 15.9461 46.1572C14.8911 46.7202 13.4451 47.4902 11.0701 47.5692C9.29009 47.6222 7.45309 46.9592 5.89809 45.7032C4.84809 44.8552 3.97309 43.7682 3.37109 42.5592C1.94209 39.6832 2.20309 36.5872 4.06909 34.2772C7.46309 30.0742 11.9881 31.4202 13.2951 31.9332L13.9131 32.1752L16.9541 28.4092L18.0101 29.2632L14.6021 33.4832C14.3911 33.7442 14.0171 33.8122 13.7161 33.6322C13.1991 33.3352 8.57109 30.8642 5.12609 35.1302C2.85209 37.9472 4.14409 41.0662 4.59009 41.9482C5.89409 44.5792 8.48309 46.2912 11.0331 46.2092C13.0681 46.1442 14.2101 45.5382 15.3281 44.9452C16.8201 44.1632 18.2301 43.4232 21.0301 44.7452C21.3641 44.9062 21.5101 45.3172 21.3491 45.6632C21.2761 45.8212 21.1421 45.9412 20.9741 46.0012V46.0022Z" fill="#009FE3"/>
</svg>
