<svg width="50" height="52" viewBox="0 0 50 52" fill="none" xmlns="http://www.w3.org/2000/svg">
<path fill-rule="evenodd" clip-rule="evenodd" d="M48.6829 50.7388C48.6559 50.7518 47.2689 51.2658 47.2689 51.2658C46.6749 51.5508 45.9919 51.5918 45.3699 51.3758C44.7469 51.1598 44.2399 50.6978 43.9659 50.0968L42.0079 45.8668L39.5699 40.3978H36.4529H34.8669H15.9639C15.4589 40.7788 14.8639 41.0238 14.2359 41.1068V50.7198C14.2359 51.1588 13.8809 51.5138 13.4429 51.5138C13.0049 51.5138 12.6499 51.1588 12.6499 50.7198V41.1958L12.0239 41.1918C10.5629 41.1828 9.15188 40.6538 8.04588 39.6988C6.93888 38.7428 6.20788 37.4248 5.98388 35.9808C5.93088 35.7958 1.27488 5.05781 0.755878 1.61481C0.724878 1.38581 0.792878 1.15581 0.943878 0.981812C1.09288 0.806812 1.31088 0.705812 1.54088 0.701812C1.54788 0.701812 5.09888 0.696812 5.17988 0.696812C6.25888 0.692812 7.30988 1.03481 8.17988 1.67381C9.04888 2.31181 9.69088 3.21381 10.0099 4.24581L14.3279 16.7728C14.6229 16.2248 15.0029 15.7278 15.4529 15.2998C16.1059 15.5608 16.7969 15.7198 17.4989 15.7658C16.6979 16.1858 16.0499 16.8488 15.6489 17.6608C15.3829 18.2018 15.2409 18.7948 15.2339 19.3988L18.9139 30.0758H22.9689L19.6649 22.8638C19.5769 22.6718 19.5679 22.4538 19.6409 22.2558C19.7139 22.0578 19.8629 21.8968 20.0549 21.8098C20.2459 21.7218 20.4649 21.7138 20.6629 21.7878C20.8599 21.8608 21.0199 22.0108 21.1069 22.2018L24.7139 30.0758H39.7269C40.0359 30.0758 40.2379 29.6308 40.2219 29.3738L40.1379 28.0208C40.1029 27.6568 39.8309 27.3608 39.4709 27.2978H27.3289C27.0089 27.2978 26.7199 27.1058 26.5969 26.8088L25.2079 23.4898C25.0399 23.0848 25.2309 22.6208 25.6339 22.4518C26.0379 22.2828 26.5019 22.4728 26.6719 22.8758L27.8569 25.7088H29.3839L26.3609 16.9868C26.0569 16.1538 25.5009 15.4378 24.7699 14.9378C24.0379 14.4378 23.1689 14.1798 22.2829 14.1998C22.7799 13.7818 23.2139 13.2948 23.5709 12.7528C25.5539 13.1498 27.1819 14.5598 27.8599 16.4668L31.0639 25.7088H39.4789C40.0589 25.7398 40.6059 25.9828 41.0189 26.3918C41.4319 26.7988 41.6819 27.3428 41.7219 27.9218L41.8059 29.2748C41.8289 29.7788 41.6899 30.2758 41.4099 30.6928C42.3889 31.3448 43.0919 32.3358 43.3839 33.4758L49.6709 47.5088C50.2629 48.8208 49.8559 50.1498 48.6829 50.7388ZM48.2239 48.1608L43.5949 37.8298L42.0089 36.0298H36.8509C36.4129 36.0298 36.0579 35.6738 36.0579 35.2358C36.0579 34.7968 36.4129 34.4418 36.8509 34.4418H41.9849C41.5119 32.0298 39.8949 31.6968 39.6729 31.6638H18.3489C18.0099 31.6638 17.7089 31.4488 17.5989 31.1288L8.50988 4.76281C8.31088 4.07881 7.90288 3.47381 7.34488 3.03081C6.78688 2.58881 6.10588 2.33081 5.39388 2.29281C5.36188 2.34881 5.32288 2.40181 5.27788 2.44781C5.12888 2.59681 4.92688 2.68081 4.71488 2.68181C4.50488 2.68281 4.30288 2.59781 4.15588 2.44781C4.10888 2.40081 4.06788 2.34781 4.03488 2.28981H2.46388C3.27288 7.65981 7.37388 34.8518 7.42988 35.2028C7.52088 35.7978 7.68188 36.3808 7.91088 36.9388C8.27288 37.7278 8.85188 38.3978 9.57988 38.8698C10.3089 39.3418 11.1559 39.5968 12.0239 39.6038C13.0269 39.6088 14.3309 39.7838 15.1249 39.0278C15.2729 38.8878 15.4689 38.8098 15.6719 38.8098L40.6949 39.0818L45.4069 49.4308C45.5099 49.6438 45.6959 49.8068 45.9209 49.8808C46.1469 49.9558 46.3919 49.9348 46.6019 49.8248C46.6279 49.8128 48.0049 49.3028 48.0049 49.3028C48.5149 49.0208 48.3629 48.4678 48.2239 48.1608ZM12.6489 34.8398C12.2109 34.8398 11.8549 34.4838 11.8549 34.0458C11.8549 33.6068 12.2109 33.2518 12.6489 33.2518C13.0869 33.2518 13.4419 33.6068 13.4419 34.0458C13.4419 34.4838 13.0869 34.8398 12.6489 34.8398ZM17.9529 14.1948C16.5859 14.1928 15.2749 13.6488 14.3079 12.6818C13.3409 11.7138 12.7969 10.4018 12.7959 9.03381C12.7959 7.66481 13.3389 6.35181 14.3059 5.38381C15.2739 4.41581 16.5859 3.87181 17.9529 3.87181C19.3209 3.87181 20.6329 4.41581 21.5999 5.38381C22.5679 6.35181 23.1109 7.66581 23.1109 9.03381C23.1109 10.4028 22.5669 11.7158 21.5999 12.6828C20.6329 13.6508 19.3209 14.1948 17.9529 14.1948ZM20.4779 6.50681C19.8079 5.83681 18.8999 5.45981 17.9529 5.45981C17.0069 5.46181 16.0989 5.83881 15.4299 6.50781C14.7599 7.17781 14.3839 8.08581 14.3829 9.03381C14.3829 9.98081 14.7589 10.8898 15.4289 11.5608C16.0979 12.2308 17.0059 12.6068 17.9529 12.6068C18.8999 12.6068 19.8079 12.2308 20.4779 11.5608C21.1479 10.8898 21.5239 9.98081 21.5239 9.03381C21.5239 8.08581 21.1479 7.17681 20.4779 6.50681Z" fill="#009FE3"/>
</svg>
