<svg width="52" height="52" viewBox="0 0 52 52" fill="none" xmlns="http://www.w3.org/2000/svg">
<path fill-rule="evenodd" clip-rule="evenodd" d="M49.3082 35.6508C48.0322 38.7258 46.1922 41.4798 43.8372 43.8338C41.4832 46.1878 38.7292 48.0278 35.6542 49.3048C32.6122 50.5678 29.4022 51.2158 26.1112 51.2338H26.1102H25.1002C22.6692 51.2338 19.4192 50.5878 16.3422 49.3138C13.2652 48.0388 10.5102 46.1978 8.15421 43.8418C5.79921 41.4868 3.95821 38.7318 2.68421 35.6558C1.40921 32.5768 0.762207 29.3278 0.762207 25.9968C0.762207 22.6658 1.40921 19.4168 2.68421 16.3388C3.95821 13.2618 5.79921 10.5058 8.15421 8.15177C10.5102 5.79677 13.2642 3.95577 16.3422 2.68077C19.4202 1.40577 22.6692 0.759766 25.1002 0.759766C29.3312 0.759766 32.5802 1.40577 35.6582 2.68077C38.7352 3.95577 41.4902 5.79677 43.8452 8.15177C46.2012 10.5058 48.0412 13.2618 49.3162 16.3388C50.5912 19.4168 51.2372 22.6658 51.2372 25.9968C51.2332 29.3268 50.5842 32.5748 49.3082 35.6508ZM42.3562 9.64177C37.9872 5.27277 32.1782 2.86277 25.1002 2.85577C19.8182 2.85577 14.0072 5.26277 9.63621 9.63277C5.26521 14.0048 2.85821 19.8158 2.85821 25.9978C2.85821 32.1788 5.26521 37.9898 9.63621 42.3618C14.0072 46.7318 19.8182 49.1398 25.1002 49.1398C32.1812 49.1398 37.9932 46.7318 42.3642 42.3618C46.7352 37.9898 49.1422 32.1788 49.1422 25.9978C49.1352 19.8188 46.7252 14.0098 42.3562 9.64177ZM32.9672 42.8208C30.7472 43.7418 28.4032 44.2098 25.1002 44.2128H25.3532L25.3652 44.2008C23.1832 44.1258 21.0552 43.6638 19.0302 42.8258C16.8092 41.9048 14.8212 40.5768 13.1212 38.8768C11.4212 37.1768 10.0922 35.1888 9.17221 32.9678C8.25221 30.7468 7.78621 28.4018 7.78621 25.9978C7.78621 23.5938 8.25221 21.2488 9.17221 19.0268C10.0922 16.8068 11.4212 14.8178 13.1212 13.1188C14.8212 11.4188 16.8092 10.0898 19.0302 9.16977C21.2512 8.24977 23.5962 7.78377 25.1002 7.78377C28.4042 7.78377 30.7492 8.24977 32.9702 9.16977C35.1912 10.0898 37.1792 11.4188 38.8792 13.1188C40.5792 14.8188 41.9072 16.8068 42.8272 19.0268C43.7472 21.2488 44.2142 23.5938 44.2142 25.9978C44.2112 28.4018 43.7432 30.7448 42.8222 32.9648C41.9012 35.1848 40.5722 37.1718 38.8732 38.8718C37.1742 40.5708 35.1872 41.8988 32.9672 42.8208ZM25.1002 27.0448C25.7202 27.0448 25.4572 26.9358 25.2592 26.7378C25.0612 26.5408 24.9522 26.2768 24.9522 25.9968V24.2098C24.8002 24.2988 24.6592 24.4058 24.5342 24.5308C24.1482 24.9168 23.9272 25.4508 23.9272 25.9968C23.9272 26.5438 24.1482 27.0768 24.5342 27.4638C24.9202 27.8488 25.4542 28.0708 25.1002 28.0708C26.5462 28.0708 27.0802 27.8488 27.4662 27.4638C27.8522 27.0768 28.0732 26.5438 28.0732 25.9968C28.0732 25.4438 27.8572 24.9238 27.4652 24.5318C27.3392 24.4058 27.1982 24.2988 27.0482 24.2118V25.9968C27.0482 26.2768 26.9392 26.5408 26.7412 26.7378C26.5432 26.9358 26.2802 27.0448 25.1002 27.0448ZM37.3922 14.6048C34.5692 11.7818 30.8822 10.1338 26.9282 9.90577C27.0042 10.0518 27.0482 10.2168 27.0482 10.3908V21.9608C27.7602 22.1438 28.4142 22.5158 28.9482 23.0488C29.7352 23.8368 30.1692 24.8838 30.1692 25.9968C30.1682 27.1098 29.7342 28.1568 28.9472 28.9438C28.1592 29.7308 27.1132 30.1648 26.0002 30.1668H25.1002C24.8872 30.1668 23.8402 29.7328 23.0522 28.9458C22.2642 28.1578 21.8312 27.1108 21.8312 25.9968C21.8312 24.8838 22.2642 23.8368 23.0522 23.0488C23.5862 22.5158 24.2402 22.1438 24.9522 21.9608V10.3908C24.9522 10.2158 24.9962 10.0508 25.0722 9.90477C21.1152 10.1288 17.4272 11.7738 14.6022 14.5998C11.7772 17.4248 10.1312 21.1128 9.90821 25.0698C9.98521 25.0298 10.0682 24.9978 10.1552 24.9778C10.2642 24.5158 10.6792 24.1688 11.1742 24.1688C11.6702 24.1688 12.0852 24.5158 12.1932 24.9778C12.6562 25.0868 13.0022 25.5018 13.0022 25.9968C13.0022 26.4878 12.6632 26.8998 12.2072 27.0128C12.1722 27.2278 12.0722 27.4258 11.9152 27.5838C11.7172 27.7808 11.4542 27.8898 11.1742 27.8898C10.8942 27.8898 10.6312 27.7808 10.4332 27.5838C10.2762 27.4258 10.1762 27.2278 10.1412 27.0128C10.0592 26.9928 9.98121 26.9628 9.90821 26.9248C10.1312 30.8818 11.7772 34.5698 14.6022 37.3948C17.4262 40.2198 21.1152 41.8658 25.0712 42.0888C25.0302 42.0108 25.0002 41.9278 24.9802 41.8428C24.5182 41.7328 24.1722 41.3188 24.1722 40.8228C24.1722 40.3278 24.5182 39.9128 24.9812 39.8038C25.0892 39.3408 25.5042 38.9958 25.1002 38.9958C26.4952 38.9958 26.9112 39.3408 27.0192 39.8038C27.4822 39.9128 27.8282 40.3278 27.8282 40.8228C27.8282 41.3188 27.4822 41.7328 27.0192 41.8428C26.9992 41.9278 26.9692 42.0108 26.9292 42.0888C30.8852 41.8658 34.5732 40.2198 37.3982 37.3948C40.4422 34.3508 42.1192 30.3028 42.1192 25.9968C42.1142 21.6938 40.4352 17.6488 37.3922 14.6048ZM36.8852 27.5188C36.6872 27.7168 36.4242 27.8258 36.1442 27.8258C35.8642 27.8258 35.6012 27.7168 35.4032 27.5188C35.2632 27.3778 35.1682 27.2048 35.1242 27.0158C34.6622 26.9078 34.3162 26.4928 34.3162 25.9968C34.3162 25.5018 34.6622 25.0868 35.1252 24.9788C35.2332 24.5158 35.6482 24.1688 36.1442 24.1688C36.6392 24.1688 37.0552 24.5158 37.1632 24.9788C37.6262 25.0868 37.9722 25.5018 37.9722 25.9968C37.9722 26.4928 37.6262 26.9078 37.1632 27.0158C37.1202 27.2048 37.0252 27.3778 36.8852 27.5188Z" fill="#009FE3"/>
</svg>
