<svg width="64" height="26" viewBox="0 0 64 26" fill="none" xmlns="http://www.w3.org/2000/svg">
<path fill-rule="evenodd" clip-rule="evenodd" d="M49.21 13.7019C42.9822 13.7019 37.1938 10.6225 31.5961 7.64532C25.9065 4.61907 20.5385 1.76242 14.804 1.76242C10.2098 1.76242 5.82935 3.64948 1.4119 7.52884L1.14131 7.76588L0 6.41009L0.270598 6.17306C4.99758 2.01988 9.74753 0 14.791 0C21.0198 0 26.8082 3.07938 32.4049 6.05761L33.3525 6.56232C38.6946 9.39343 43.783 11.9395 49.197 11.9395C53.7912 11.9395 58.1717 10.0534 62.5891 6.17306L62.8587 5.93603L64 7.29181L63.7304 7.52884C59.0024 11.682 54.2525 13.7019 49.21 13.7019ZM14.791 12.2991C21.0198 12.2991 26.8072 15.3785 32.4049 18.3557L33.4184 18.8952C38.7325 21.712 43.803 24.2366 49.196 24.2366C53.7912 24.2366 58.1717 22.3515 62.5891 18.4712L62.8587 18.2341L64 19.5909L63.7304 19.828C59.0024 23.9811 54.2525 26 49.21 26C42.9832 26.001 37.1968 22.9227 31.6001 19.9455C25.9075 16.9172 20.5385 14.0615 14.804 14.0615C10.2088 14.0615 5.82835 15.9476 1.4119 19.828L1.14131 20.065L0 18.7082L0.270598 18.4712C4.99858 14.317 9.74853 12.2991 14.791 12.2991Z" fill="#009FE3"/>
</svg>
